<mxfile host="app.diagrams.net" agent="Mozilla/5.0 (Windows NT 10.0; Win64; x64) AppleWebKit/537.36 (KHTML, like Gecko) Chrome/134.0.0.0 Safari/537.36" version="26.1.3">
  <diagram name="Page-1" id="wxdLQiIWg8Wsp8leFCol">
    <mxGraphModel dx="3650" dy="2165" grid="1" gridSize="10" guides="1" tooltips="1" connect="1" arrows="1" fold="1" page="1" pageScale="1" pageWidth="850" pageHeight="1100" math="0" shadow="0">
      <root>
        <mxCell id="0" />
        <mxCell id="1" parent="0" />
        <mxCell id="DKXciQr0R16n2NeMmEZQ-1" value="User" style="rounded=0;whiteSpace=wrap;html=1;" parent="1" vertex="1">
          <mxGeometry x="444" y="405" width="94" height="34" as="geometry" />
        </mxCell>
        <mxCell id="DKXciQr0R16n2NeMmEZQ-2" value="Customer" style="rounded=0;whiteSpace=wrap;html=1;" parent="1" vertex="1">
          <mxGeometry x="-4" y="372.5" width="100" height="40" as="geometry" />
        </mxCell>
        <mxCell id="DKXciQr0R16n2NeMmEZQ-3" value="Payments" style="rounded=0;whiteSpace=wrap;html=1;" parent="1" vertex="1">
          <mxGeometry x="309" width="100" height="40" as="geometry" />
        </mxCell>
        <mxCell id="DKXciQr0R16n2NeMmEZQ-4" value="Product" style="rounded=0;whiteSpace=wrap;html=1;" parent="1" vertex="1">
          <mxGeometry x="-230" y="157" width="100" height="40" as="geometry" />
        </mxCell>
        <mxCell id="DKXciQr0R16n2NeMmEZQ-5" value="Orders" style="rounded=0;whiteSpace=wrap;html=1;" parent="1" vertex="1">
          <mxGeometry x="309" y="248" width="100" height="40" as="geometry" />
        </mxCell>
        <mxCell id="DKXciQr0R16n2NeMmEZQ-6" value="Professors" style="rounded=0;whiteSpace=wrap;html=1;" parent="1" vertex="1">
          <mxGeometry x="820" y="60" width="100" height="40" as="geometry" />
        </mxCell>
        <mxCell id="DKXciQr0R16n2NeMmEZQ-7" value="Student&lt;span style=&quot;color: rgba(0, 0, 0, 0); font-family: monospace; font-size: 0px; text-align: start; text-wrap-mode: nowrap;&quot;&gt;%3CmxGraphModel%3E%3Croot%3E%3CmxCell%20id%3D%220%22%2F%3E%3CmxCell%20id%3D%221%22%20parent%3D%220%22%2F%3E%3CmxCell%20id%3D%222%22%20value%3D%22Customers%22%20style%3D%22rounded%3D0%3BwhiteSpace%3Dwrap%3Bhtml%3D1%3B%22%20vertex%3D%221%22%20parent%3D%221%22%3E%3CmxGeometry%20x%3D%2270%22%20y%3D%2280%22%20width%3D%22100%22%20height%3D%2240%22%20as%3D%22geometry%22%2F%3E%3C%2FmxCell%3E%3C%2Froot%3E%3C%2FmxGraphModel%3E&lt;/span&gt;" style="rounded=0;whiteSpace=wrap;html=1;" parent="1" vertex="1">
          <mxGeometry x="559" y="236" width="100" height="40" as="geometry" />
        </mxCell>
        <mxCell id="DKXciQr0R16n2NeMmEZQ-8" value="Exams" style="rounded=0;whiteSpace=wrap;html=1;" parent="1" vertex="1">
          <mxGeometry x="960" y="160" width="90" height="30" as="geometry" />
        </mxCell>
        <mxCell id="DKXciQr0R16n2NeMmEZQ-9" value="Courses" style="rounded=0;whiteSpace=wrap;html=1;" parent="1" vertex="1">
          <mxGeometry x="630" y="30" width="90" height="30" as="geometry" />
        </mxCell>
        <mxCell id="DKXciQr0R16n2NeMmEZQ-10" value="Patient" style="rounded=0;whiteSpace=wrap;html=1;" parent="1" vertex="1">
          <mxGeometry x="126" y="594" width="100" height="40" as="geometry" />
        </mxCell>
        <mxCell id="DKXciQr0R16n2NeMmEZQ-11" value="Doctor" style="rounded=0;whiteSpace=wrap;html=1;" parent="1" vertex="1">
          <mxGeometry x="-103" y="624" width="100" height="40" as="geometry" />
        </mxCell>
        <mxCell id="DKXciQr0R16n2NeMmEZQ-12" value="Appointment" style="rounded=0;whiteSpace=wrap;html=1;" parent="1" vertex="1">
          <mxGeometry x="170.5" y="734" width="91" height="32" as="geometry" />
        </mxCell>
        <mxCell id="DKXciQr0R16n2NeMmEZQ-14" value="&lt;span style=&quot;text-align: left;&quot;&gt;Prescriptions&lt;/span&gt;" style="rounded=0;whiteSpace=wrap;html=1;" parent="1" vertex="1">
          <mxGeometry x="-33" y="852" width="100" height="40" as="geometry" />
        </mxCell>
        <mxCell id="DKXciQr0R16n2NeMmEZQ-15" value="Accounts" style="rounded=0;whiteSpace=wrap;html=1;" parent="1" vertex="1">
          <mxGeometry x="752" y="449" width="100" height="40" as="geometry" />
        </mxCell>
        <mxCell id="DKXciQr0R16n2NeMmEZQ-16" value="Transactions" style="rounded=0;whiteSpace=wrap;html=1;" parent="1" vertex="1">
          <mxGeometry x="1169" y="497" width="100" height="40" as="geometry" />
        </mxCell>
        <mxCell id="DKXciQr0R16n2NeMmEZQ-17" value="Loan" style="rounded=0;whiteSpace=wrap;html=1;" parent="1" vertex="1">
          <mxGeometry x="1289" y="369.5" width="90" height="40" as="geometry" />
        </mxCell>
        <mxCell id="DKXciQr0R16n2NeMmEZQ-18" value="Playlist" style="rounded=0;whiteSpace=wrap;html=1;" parent="1" vertex="1">
          <mxGeometry x="746" y="1001" width="100" height="40" as="geometry" />
        </mxCell>
        <mxCell id="DKXciQr0R16n2NeMmEZQ-19" value="Songs" style="rounded=0;whiteSpace=wrap;html=1;" parent="1" vertex="1">
          <mxGeometry x="1071" y="1001" width="100" height="40" as="geometry" />
        </mxCell>
        <mxCell id="DKXciQr0R16n2NeMmEZQ-20" value="Subscription" style="rounded=0;whiteSpace=wrap;html=1;" parent="1" vertex="1">
          <mxGeometry x="1123" y="667" width="100" height="40" as="geometry" />
        </mxCell>
        <mxCell id="DKXciQr0R16n2NeMmEZQ-21" value="Has&amp;nbsp;" style="rhombus;whiteSpace=wrap;html=1;" parent="1" vertex="1">
          <mxGeometry x="584" y="451" width="70" height="60" as="geometry" />
        </mxCell>
        <mxCell id="DKXciQr0R16n2NeMmEZQ-22" value="" style="endArrow=classic;html=1;rounded=0;entryX=0;entryY=0.5;entryDx=0;entryDy=0;" parent="1" edge="1">
          <mxGeometry width="50" height="50" relative="1" as="geometry">
            <mxPoint x="530" y="435" as="sourcePoint" />
            <mxPoint x="584" y="486" as="targetPoint" />
            <Array as="points">
              <mxPoint x="530" y="486" />
            </Array>
          </mxGeometry>
        </mxCell>
        <mxCell id="DKXciQr0R16n2NeMmEZQ-23" value="" style="endArrow=classic;html=1;rounded=0;entryX=0;entryY=0.75;entryDx=0;entryDy=0;exitX=1;exitY=0.5;exitDx=0;exitDy=0;" parent="1" source="DKXciQr0R16n2NeMmEZQ-21" target="DKXciQr0R16n2NeMmEZQ-15" edge="1">
          <mxGeometry width="50" height="50" relative="1" as="geometry">
            <mxPoint x="649" y="446" as="sourcePoint" />
            <mxPoint x="584" y="456" as="targetPoint" />
            <Array as="points" />
          </mxGeometry>
        </mxCell>
        <mxCell id="DKXciQr0R16n2NeMmEZQ-24" value="Can be" style="rhombus;whiteSpace=wrap;html=1;" parent="1" vertex="1">
          <mxGeometry x="296" y="584" width="60" height="60" as="geometry" />
        </mxCell>
        <mxCell id="DKXciQr0R16n2NeMmEZQ-25" value="" style="endArrow=classic;html=1;rounded=0;exitX=0.34;exitY=1.025;exitDx=0;exitDy=0;entryX=1;entryY=0.5;entryDx=0;entryDy=0;exitPerimeter=0;" parent="1" source="DKXciQr0R16n2NeMmEZQ-1" target="DKXciQr0R16n2NeMmEZQ-24" edge="1">
          <mxGeometry width="50" height="50" relative="1" as="geometry">
            <mxPoint x="499" y="416" as="sourcePoint" />
            <mxPoint x="549" y="366" as="targetPoint" />
            <Array as="points">
              <mxPoint x="480" y="614" />
            </Array>
          </mxGeometry>
        </mxCell>
        <mxCell id="DKXciQr0R16n2NeMmEZQ-26" value="" style="endArrow=classic;html=1;rounded=0;exitX=0;exitY=0.5;exitDx=0;exitDy=0;entryX=1;entryY=0.5;entryDx=0;entryDy=0;" parent="1" source="DKXciQr0R16n2NeMmEZQ-24" target="DKXciQr0R16n2NeMmEZQ-10" edge="1">
          <mxGeometry width="50" height="50" relative="1" as="geometry">
            <mxPoint x="356" y="530" as="sourcePoint" />
            <mxPoint x="406" y="480" as="targetPoint" />
          </mxGeometry>
        </mxCell>
        <mxCell id="DKXciQr0R16n2NeMmEZQ-27" value="Is a" style="rhombus;whiteSpace=wrap;html=1;" parent="1" vertex="1">
          <mxGeometry x="131" y="443" width="70" height="54" as="geometry" />
        </mxCell>
        <mxCell id="DKXciQr0R16n2NeMmEZQ-28" value="" style="endArrow=classic;html=1;rounded=0;" parent="1" edge="1">
          <mxGeometry width="50" height="50" relative="1" as="geometry">
            <mxPoint x="451" y="440" as="sourcePoint" />
            <mxPoint x="202" y="470" as="targetPoint" />
            <Array as="points">
              <mxPoint x="451" y="470" />
            </Array>
          </mxGeometry>
        </mxCell>
        <mxCell id="DKXciQr0R16n2NeMmEZQ-29" value="" style="endArrow=classic;html=1;rounded=0;entryX=0.5;entryY=1;entryDx=0;entryDy=0;exitX=1;exitY=0.5;exitDx=0;exitDy=0;" parent="1" source="DKXciQr0R16n2NeMmEZQ-2" target="dU2uv5KBZdzxwUZeEGdV-50" edge="1">
          <mxGeometry width="50" height="50" relative="1" as="geometry">
            <mxPoint x="50" y="420" as="sourcePoint" />
            <mxPoint x="270" y="356" as="targetPoint" />
            <Array as="points">
              <mxPoint x="210" y="393" />
            </Array>
          </mxGeometry>
        </mxCell>
        <mxCell id="DKXciQr0R16n2NeMmEZQ-30" value="Can be" style="rhombus;whiteSpace=wrap;html=1;" parent="1" vertex="1">
          <mxGeometry x="599" y="316" width="60" height="60" as="geometry" />
        </mxCell>
        <mxCell id="DKXciQr0R16n2NeMmEZQ-31" value="" style="endArrow=classic;html=1;rounded=0;entryX=0.5;entryY=1;entryDx=0;entryDy=0;" parent="1" edge="1">
          <mxGeometry width="50" height="50" relative="1" as="geometry">
            <mxPoint x="538" y="423" as="sourcePoint" />
            <mxPoint x="629" y="375" as="targetPoint" />
            <Array as="points">
              <mxPoint x="629" y="423" />
            </Array>
          </mxGeometry>
        </mxCell>
        <mxCell id="DKXciQr0R16n2NeMmEZQ-32" value="" style="endArrow=classic;html=1;rounded=0;entryX=0.67;entryY=0.85;entryDx=0;entryDy=0;entryPerimeter=0;" parent="1" edge="1">
          <mxGeometry width="50" height="50" relative="1" as="geometry">
            <mxPoint x="628" y="318" as="sourcePoint" />
            <mxPoint x="626" y="273" as="targetPoint" />
          </mxGeometry>
        </mxCell>
        <mxCell id="DKXciQr0R16n2NeMmEZQ-33" value="Buy" style="rhombus;whiteSpace=wrap;html=1;" parent="1" vertex="1">
          <mxGeometry x="981" y="657" width="70" height="60" as="geometry" />
        </mxCell>
        <mxCell id="DKXciQr0R16n2NeMmEZQ-34" value="" style="endArrow=classic;html=1;rounded=0;entryX=0;entryY=0.5;entryDx=0;entryDy=0;" parent="1" target="dU2uv5KBZdzxwUZeEGdV-207" edge="1">
          <mxGeometry width="50" height="50" relative="1" as="geometry">
            <mxPoint x="500" y="440" as="sourcePoint" />
            <mxPoint x="680" y="550" as="targetPoint" />
            <Array as="points">
              <mxPoint x="500" y="550" />
              <mxPoint x="649" y="550" />
              <mxPoint x="649" y="620" />
            </Array>
          </mxGeometry>
        </mxCell>
        <mxCell id="DKXciQr0R16n2NeMmEZQ-35" value="" style="endArrow=classic;html=1;rounded=0;entryX=0;entryY=0.5;entryDx=0;entryDy=0;exitX=1;exitY=0.5;exitDx=0;exitDy=0;" parent="1" source="DKXciQr0R16n2NeMmEZQ-33" target="DKXciQr0R16n2NeMmEZQ-20" edge="1">
          <mxGeometry width="50" height="50" relative="1" as="geometry">
            <mxPoint x="848" y="633" as="sourcePoint" />
            <mxPoint x="647" y="549" as="targetPoint" />
          </mxGeometry>
        </mxCell>
        <mxCell id="DKXciQr0R16n2NeMmEZQ-37" value="Create" style="rhombus;whiteSpace=wrap;html=1;" parent="1" vertex="1">
          <mxGeometry x="617" y="735" width="70" height="70" as="geometry" />
        </mxCell>
        <mxCell id="DKXciQr0R16n2NeMmEZQ-38" value="" style="endArrow=classic;html=1;rounded=0;entryX=0;entryY=0.5;entryDx=0;entryDy=0;" parent="1" edge="1">
          <mxGeometry width="50" height="50" relative="1" as="geometry">
            <mxPoint x="654" y="807" as="sourcePoint" />
            <mxPoint x="748" y="1018" as="targetPoint" />
            <Array as="points">
              <mxPoint x="654" y="1020" />
            </Array>
          </mxGeometry>
        </mxCell>
        <mxCell id="dU2uv5KBZdzxwUZeEGdV-2" value="Can&amp;nbsp;&lt;div&gt;Have&lt;/div&gt;" style="rhombus;whiteSpace=wrap;html=1;" parent="1" vertex="1">
          <mxGeometry x="996" y="479" width="60" height="60" as="geometry" />
        </mxCell>
        <mxCell id="dU2uv5KBZdzxwUZeEGdV-4" value="" style="endArrow=classic;html=1;rounded=0;entryX=0.75;entryY=0;entryDx=0;entryDy=0;" parent="1" edge="1">
          <mxGeometry width="50" height="50" relative="1" as="geometry">
            <mxPoint x="1059" y="510" as="sourcePoint" />
            <mxPoint x="1168" y="513" as="targetPoint" />
            <Array as="points" />
          </mxGeometry>
        </mxCell>
        <mxCell id="dU2uv5KBZdzxwUZeEGdV-5" value="Have" style="rhombus;whiteSpace=wrap;html=1;" parent="1" vertex="1">
          <mxGeometry x="1004" y="359.5" width="60" height="60" as="geometry" />
        </mxCell>
        <mxCell id="dU2uv5KBZdzxwUZeEGdV-6" value="" style="endArrow=classic;html=1;rounded=0;entryX=0;entryY=0.5;entryDx=0;entryDy=0;" parent="1" target="dU2uv5KBZdzxwUZeEGdV-5" edge="1">
          <mxGeometry width="50" height="50" relative="1" as="geometry">
            <mxPoint x="860" y="469" as="sourcePoint" />
            <mxPoint x="850" y="461" as="targetPoint" />
            <Array as="points">
              <mxPoint x="920" y="469" />
              <mxPoint x="920" y="390" />
            </Array>
          </mxGeometry>
        </mxCell>
        <mxCell id="dU2uv5KBZdzxwUZeEGdV-7" value="" style="endArrow=classic;html=1;rounded=0;exitX=1;exitY=0.5;exitDx=0;exitDy=0;entryX=0;entryY=0.5;entryDx=0;entryDy=0;" parent="1" source="dU2uv5KBZdzxwUZeEGdV-5" target="DKXciQr0R16n2NeMmEZQ-17" edge="1">
          <mxGeometry width="50" height="50" relative="1" as="geometry">
            <mxPoint x="1059" y="462" as="sourcePoint" />
            <mxPoint x="1269" y="375" as="targetPoint" />
          </mxGeometry>
        </mxCell>
        <mxCell id="dU2uv5KBZdzxwUZeEGdV-8" value="Have" style="rhombus;whiteSpace=wrap;html=1;" parent="1" vertex="1">
          <mxGeometry x="277" y="844" width="60" height="56" as="geometry" />
        </mxCell>
        <mxCell id="dU2uv5KBZdzxwUZeEGdV-9" value="Issue" style="rhombus;whiteSpace=wrap;html=1;" parent="1" vertex="1">
          <mxGeometry x="-103" y="727" width="60" height="56" as="geometry" />
        </mxCell>
        <mxCell id="dU2uv5KBZdzxwUZeEGdV-10" value="Can&amp;nbsp;&lt;div&gt;Book&lt;/div&gt;" style="rhombus;whiteSpace=wrap;html=1;" parent="1" vertex="1">
          <mxGeometry x="56" y="652" width="60" height="56" as="geometry" />
        </mxCell>
        <mxCell id="dU2uv5KBZdzxwUZeEGdV-11" value="" style="endArrow=classic;html=1;rounded=0;entryX=0.5;entryY=0;entryDx=0;entryDy=0;exitX=0;exitY=0.25;exitDx=0;exitDy=0;" parent="1" source="DKXciQr0R16n2NeMmEZQ-10" target="dU2uv5KBZdzxwUZeEGdV-10" edge="1">
          <mxGeometry width="50" height="50" relative="1" as="geometry">
            <mxPoint x="197" y="634" as="sourcePoint" />
            <mxPoint x="487" y="604" as="targetPoint" />
            <Array as="points">
              <mxPoint x="87" y="604" />
            </Array>
          </mxGeometry>
        </mxCell>
        <mxCell id="dU2uv5KBZdzxwUZeEGdV-12" value="" style="endArrow=classic;html=1;rounded=0;exitX=1;exitY=0.5;exitDx=0;exitDy=0;entryX=0.071;entryY=0;entryDx=0;entryDy=0;entryPerimeter=0;" parent="1" source="dU2uv5KBZdzxwUZeEGdV-10" target="DKXciQr0R16n2NeMmEZQ-12" edge="1">
          <mxGeometry width="50" height="50" relative="1" as="geometry">
            <mxPoint x="437" y="654" as="sourcePoint" />
            <mxPoint x="177" y="724" as="targetPoint" />
            <Array as="points">
              <mxPoint x="177" y="680" />
            </Array>
          </mxGeometry>
        </mxCell>
        <mxCell id="dU2uv5KBZdzxwUZeEGdV-13" value="" style="endArrow=classic;html=1;rounded=0;exitX=1;exitY=0.75;exitDx=0;exitDy=0;entryX=0.5;entryY=0;entryDx=0;entryDy=0;exitPerimeter=0;" parent="1" source="DKXciQr0R16n2NeMmEZQ-10" target="dU2uv5KBZdzxwUZeEGdV-8" edge="1">
          <mxGeometry width="50" height="50" relative="1" as="geometry">
            <mxPoint x="437" y="654" as="sourcePoint" />
            <mxPoint x="207" y="794" as="targetPoint" />
            <Array as="points">
              <mxPoint x="297" y="624" />
              <mxPoint x="297" y="664" />
              <mxPoint x="307" y="664" />
              <mxPoint x="307" y="714" />
            </Array>
          </mxGeometry>
        </mxCell>
        <mxCell id="dU2uv5KBZdzxwUZeEGdV-14" value="" style="endArrow=classic;html=1;rounded=0;entryX=1;entryY=0.5;entryDx=0;entryDy=0;exitX=0;exitY=0.5;exitDx=0;exitDy=0;" parent="1" source="dU2uv5KBZdzxwUZeEGdV-8" target="DKXciQr0R16n2NeMmEZQ-14" edge="1">
          <mxGeometry width="50" height="50" relative="1" as="geometry">
            <mxPoint x="437" y="654" as="sourcePoint" />
            <mxPoint x="487" y="604" as="targetPoint" />
          </mxGeometry>
        </mxCell>
        <mxCell id="dU2uv5KBZdzxwUZeEGdV-15" value="" style="endArrow=classic;html=1;rounded=0;entryX=0.5;entryY=0;entryDx=0;entryDy=0;" parent="1" target="dU2uv5KBZdzxwUZeEGdV-9" edge="1">
          <mxGeometry width="50" height="50" relative="1" as="geometry">
            <mxPoint x="-73" y="664" as="sourcePoint" />
            <mxPoint x="487" y="604" as="targetPoint" />
          </mxGeometry>
        </mxCell>
        <mxCell id="dU2uv5KBZdzxwUZeEGdV-16" value="" style="endArrow=classic;html=1;rounded=0;entryX=0;entryY=0.5;entryDx=0;entryDy=0;" parent="1" target="DKXciQr0R16n2NeMmEZQ-14" edge="1">
          <mxGeometry width="50" height="50" relative="1" as="geometry">
            <mxPoint x="-73" y="784" as="sourcePoint" />
            <mxPoint x="487" y="604" as="targetPoint" />
            <Array as="points">
              <mxPoint x="-73" y="872" />
            </Array>
          </mxGeometry>
        </mxCell>
        <mxCell id="dU2uv5KBZdzxwUZeEGdV-17" value="&amp;nbsp;&lt;br&gt;&lt;span style=&quot;color: rgb(0, 0, 0); font-family: Helvetica; font-size: 12px; font-style: normal; font-variant-ligatures: normal; font-variant-caps: normal; font-weight: 400; letter-spacing: normal; orphans: 2; text-align: center; text-indent: 0px; text-transform: none; widows: 2; word-spacing: 0px; -webkit-text-stroke-width: 0px; white-space: normal; background-color: rgb(251, 251, 251); text-decoration-thickness: initial; text-decoration-style: initial; text-decoration-color: initial; float: none; display: inline !important;&quot;&gt;Has&lt;/span&gt;&lt;div&gt;&lt;br/&gt;&lt;/div&gt;" style="rhombus;whiteSpace=wrap;html=1;" parent="1" vertex="1">
          <mxGeometry x="75" y="720" width="60" height="60" as="geometry" />
        </mxCell>
        <mxCell id="dU2uv5KBZdzxwUZeEGdV-18" value="" style="endArrow=classic;html=1;rounded=0;exitX=0.75;exitY=1;exitDx=0;exitDy=0;entryX=0;entryY=0.5;entryDx=0;entryDy=0;" parent="1" source="DKXciQr0R16n2NeMmEZQ-11" target="dU2uv5KBZdzxwUZeEGdV-17" edge="1">
          <mxGeometry width="50" height="50" relative="1" as="geometry">
            <mxPoint x="437" y="654" as="sourcePoint" />
            <mxPoint x="487" y="604" as="targetPoint" />
            <Array as="points">
              <mxPoint x="-28" y="750" />
            </Array>
          </mxGeometry>
        </mxCell>
        <mxCell id="dU2uv5KBZdzxwUZeEGdV-19" value="" style="endArrow=classic;html=1;rounded=0;exitX=1;exitY=0.5;exitDx=0;exitDy=0;" parent="1" source="dU2uv5KBZdzxwUZeEGdV-17" target="DKXciQr0R16n2NeMmEZQ-12" edge="1">
          <mxGeometry width="50" height="50" relative="1" as="geometry">
            <mxPoint x="437" y="654" as="sourcePoint" />
            <mxPoint x="487" y="604" as="targetPoint" />
          </mxGeometry>
        </mxCell>
        <mxCell id="dU2uv5KBZdzxwUZeEGdV-23" value="Teach" style="rhombus;whiteSpace=wrap;html=1;" parent="1" vertex="1">
          <mxGeometry x="832" y="130" width="60" height="60" as="geometry" />
        </mxCell>
        <mxCell id="dU2uv5KBZdzxwUZeEGdV-24" value="" style="endArrow=classic;html=1;rounded=0;entryX=0.5;entryY=0;entryDx=0;entryDy=0;exitX=0.42;exitY=1.025;exitDx=0;exitDy=0;exitPerimeter=0;" parent="1" source="DKXciQr0R16n2NeMmEZQ-6" target="dU2uv5KBZdzxwUZeEGdV-23" edge="1">
          <mxGeometry width="50" height="50" relative="1" as="geometry">
            <mxPoint x="798" y="122" as="sourcePoint" />
            <mxPoint x="630" y="250" as="targetPoint" />
          </mxGeometry>
        </mxCell>
        <mxCell id="dU2uv5KBZdzxwUZeEGdV-25" value="ExamResult" style="rounded=0;whiteSpace=wrap;html=1;" parent="1" vertex="1">
          <mxGeometry x="1020" y="276" width="90" height="32" as="geometry" />
        </mxCell>
        <mxCell id="dU2uv5KBZdzxwUZeEGdV-26" value="" style="endArrow=classic;html=1;rounded=0;entryX=1;entryY=0.75;entryDx=0;entryDy=0;" parent="1" target="DKXciQr0R16n2NeMmEZQ-9" edge="1">
          <mxGeometry width="50" height="50" relative="1" as="geometry">
            <mxPoint x="830" y="160" as="sourcePoint" />
            <mxPoint x="630" y="180" as="targetPoint" />
            <Array as="points">
              <mxPoint x="770" y="160" />
              <mxPoint x="770" y="53" />
            </Array>
          </mxGeometry>
        </mxCell>
        <mxCell id="dU2uv5KBZdzxwUZeEGdV-27" value="Can&lt;div&gt;Have&lt;/div&gt;" style="rhombus;whiteSpace=wrap;html=1;" parent="1" vertex="1">
          <mxGeometry x="760" y="234" width="60" height="60" as="geometry" />
        </mxCell>
        <mxCell id="dU2uv5KBZdzxwUZeEGdV-28" value="" style="endArrow=classic;html=1;rounded=0;entryX=0;entryY=0.5;entryDx=0;entryDy=0;" parent="1" target="dU2uv5KBZdzxwUZeEGdV-27" edge="1">
          <mxGeometry width="50" height="50" relative="1" as="geometry">
            <mxPoint x="660" y="264" as="sourcePoint" />
            <mxPoint x="729" y="259" as="targetPoint" />
          </mxGeometry>
        </mxCell>
        <mxCell id="dU2uv5KBZdzxwUZeEGdV-29" value="" style="endArrow=classic;html=1;rounded=0;entryX=0;entryY=0.5;entryDx=0;entryDy=0;exitX=1;exitY=0.5;exitDx=0;exitDy=0;" parent="1" source="dU2uv5KBZdzxwUZeEGdV-27" target="dU2uv5KBZdzxwUZeEGdV-25" edge="1">
          <mxGeometry width="50" height="50" relative="1" as="geometry">
            <mxPoint x="670" y="274" as="sourcePoint" />
            <mxPoint x="739" y="274" as="targetPoint" />
            <Array as="points">
              <mxPoint x="880" y="264" />
              <mxPoint x="880" y="290" />
            </Array>
          </mxGeometry>
        </mxCell>
        <mxCell id="dU2uv5KBZdzxwUZeEGdV-30" value="Has" style="rhombus;whiteSpace=wrap;html=1;" parent="1" vertex="1">
          <mxGeometry x="1120" y="150" width="60" height="50" as="geometry" />
        </mxCell>
        <mxCell id="dU2uv5KBZdzxwUZeEGdV-31" value="" style="endArrow=classic;html=1;rounded=0;entryX=0;entryY=0.5;entryDx=0;entryDy=0;exitX=1;exitY=0.5;exitDx=0;exitDy=0;exitPerimeter=0;" parent="1" source="DKXciQr0R16n2NeMmEZQ-8" target="dU2uv5KBZdzxwUZeEGdV-30" edge="1">
          <mxGeometry width="50" height="50" relative="1" as="geometry">
            <mxPoint x="580" y="230" as="sourcePoint" />
            <mxPoint x="630" y="180" as="targetPoint" />
          </mxGeometry>
        </mxCell>
        <mxCell id="dU2uv5KBZdzxwUZeEGdV-32" value="" style="endArrow=classic;html=1;rounded=0;entryX=1;entryY=0.5;entryDx=0;entryDy=0;exitX=0.517;exitY=1;exitDx=0;exitDy=0;exitPerimeter=0;" parent="1" source="dU2uv5KBZdzxwUZeEGdV-30" target="dU2uv5KBZdzxwUZeEGdV-25" edge="1">
          <mxGeometry width="50" height="50" relative="1" as="geometry">
            <mxPoint x="1116" y="200" as="sourcePoint" />
            <mxPoint x="1121" y="248" as="targetPoint" />
            <Array as="points">
              <mxPoint x="1151" y="292" />
            </Array>
          </mxGeometry>
        </mxCell>
        <mxCell id="dU2uv5KBZdzxwUZeEGdV-33" value="Enrollments" style="rounded=0;whiteSpace=wrap;html=1;" parent="1" vertex="1">
          <mxGeometry x="520" y="110" width="100" height="40" as="geometry" />
        </mxCell>
        <mxCell id="dU2uv5KBZdzxwUZeEGdV-34" value="Can&lt;div&gt;Have&lt;/div&gt;" style="rhombus;whiteSpace=wrap;html=1;" parent="1" vertex="1">
          <mxGeometry x="469" y="174" width="60" height="50" as="geometry" />
        </mxCell>
        <mxCell id="dU2uv5KBZdzxwUZeEGdV-35" value="" style="endArrow=classic;html=1;rounded=0;entryX=0.5;entryY=1;entryDx=0;entryDy=0;exitX=0;exitY=0.5;exitDx=0;exitDy=0;" parent="1" source="DKXciQr0R16n2NeMmEZQ-7" target="dU2uv5KBZdzxwUZeEGdV-34" edge="1">
          <mxGeometry width="50" height="50" relative="1" as="geometry">
            <mxPoint x="580" y="230" as="sourcePoint" />
            <mxPoint x="630" y="180" as="targetPoint" />
            <Array as="points">
              <mxPoint x="500" y="256" />
            </Array>
          </mxGeometry>
        </mxCell>
        <mxCell id="dU2uv5KBZdzxwUZeEGdV-36" value="" style="endArrow=classic;html=1;rounded=0;entryX=0;entryY=0.5;entryDx=0;entryDy=0;exitX=0.5;exitY=0;exitDx=0;exitDy=0;" parent="1" source="dU2uv5KBZdzxwUZeEGdV-34" target="dU2uv5KBZdzxwUZeEGdV-33" edge="1">
          <mxGeometry width="50" height="50" relative="1" as="geometry">
            <mxPoint x="580" y="230" as="sourcePoint" />
            <mxPoint x="630" y="180" as="targetPoint" />
            <Array as="points">
              <mxPoint x="500" y="130" />
            </Array>
          </mxGeometry>
        </mxCell>
        <mxCell id="dU2uv5KBZdzxwUZeEGdV-37" value="Has" style="rhombus;whiteSpace=wrap;html=1;" parent="1" vertex="1">
          <mxGeometry x="649" y="100" width="60" height="50" as="geometry" />
        </mxCell>
        <mxCell id="dU2uv5KBZdzxwUZeEGdV-38" value="" style="endArrow=classic;html=1;rounded=0;exitX=0.5;exitY=1;exitDx=0;exitDy=0;" parent="1" edge="1">
          <mxGeometry width="50" height="50" relative="1" as="geometry">
            <mxPoint x="679" y="60" as="sourcePoint" />
            <mxPoint x="679" y="100" as="targetPoint" />
          </mxGeometry>
        </mxCell>
        <mxCell id="dU2uv5KBZdzxwUZeEGdV-39" value="" style="endArrow=classic;html=1;rounded=0;entryX=1;entryY=0.375;entryDx=0;entryDy=0;exitX=0;exitY=0.5;exitDx=0;exitDy=0;entryPerimeter=0;" parent="1" source="dU2uv5KBZdzxwUZeEGdV-37" target="dU2uv5KBZdzxwUZeEGdV-33" edge="1">
          <mxGeometry width="50" height="50" relative="1" as="geometry">
            <mxPoint x="580" y="230" as="sourcePoint" />
            <mxPoint x="630" y="180" as="targetPoint" />
          </mxGeometry>
        </mxCell>
        <mxCell id="dU2uv5KBZdzxwUZeEGdV-43" value="Has" style="rhombus;whiteSpace=wrap;html=1;" parent="1" vertex="1">
          <mxGeometry x="313.5" y="100" width="70" height="60" as="geometry" />
        </mxCell>
        <mxCell id="dU2uv5KBZdzxwUZeEGdV-44" value="" style="endArrow=classic;html=1;rounded=0;exitX=0.4;exitY=-0.05;exitDx=0;exitDy=0;exitPerimeter=0;entryX=0.5;entryY=1;entryDx=0;entryDy=0;" parent="1" source="DKXciQr0R16n2NeMmEZQ-5" target="dU2uv5KBZdzxwUZeEGdV-43" edge="1">
          <mxGeometry width="50" height="50" relative="1" as="geometry">
            <mxPoint x="580" y="70" as="sourcePoint" />
            <mxPoint x="350" y="200" as="targetPoint" />
          </mxGeometry>
        </mxCell>
        <mxCell id="dU2uv5KBZdzxwUZeEGdV-46" value="" style="endArrow=classic;html=1;rounded=0;exitX=0.5;exitY=0;exitDx=0;exitDy=0;entryX=0.39;entryY=0.95;entryDx=0;entryDy=0;entryPerimeter=0;" parent="1" source="dU2uv5KBZdzxwUZeEGdV-43" target="DKXciQr0R16n2NeMmEZQ-3" edge="1">
          <mxGeometry width="50" height="50" relative="1" as="geometry">
            <mxPoint x="580" y="70" as="sourcePoint" />
            <mxPoint x="630" y="20" as="targetPoint" />
          </mxGeometry>
        </mxCell>
        <mxCell id="dU2uv5KBZdzxwUZeEGdV-47" value="Has" style="rhombus;whiteSpace=wrap;html=1;" parent="1" vertex="1">
          <mxGeometry x="-120" y="200" width="60" height="60" as="geometry" />
        </mxCell>
        <mxCell id="dU2uv5KBZdzxwUZeEGdV-48" value="" style="endArrow=classic;html=1;rounded=0;entryX=0;entryY=0.5;entryDx=0;entryDy=0;exitX=0.43;exitY=1.025;exitDx=0;exitDy=0;exitPerimeter=0;" parent="1" source="DKXciQr0R16n2NeMmEZQ-4" target="dU2uv5KBZdzxwUZeEGdV-47" edge="1">
          <mxGeometry width="50" height="50" relative="1" as="geometry">
            <mxPoint x="270" y="230" as="sourcePoint" />
            <mxPoint x="320" y="180" as="targetPoint" />
            <Array as="points">
              <mxPoint x="-187" y="230" />
            </Array>
          </mxGeometry>
        </mxCell>
        <mxCell id="dU2uv5KBZdzxwUZeEGdV-49" value="" style="endArrow=classic;html=1;rounded=0;" parent="1" edge="1">
          <mxGeometry width="50" height="50" relative="1" as="geometry">
            <mxPoint x="-57" y="230" as="sourcePoint" />
            <mxPoint x="10" y="230" as="targetPoint" />
            <Array as="points">
              <mxPoint x="-40" y="230" />
              <mxPoint x="10" y="230" />
              <mxPoint x="-20" y="230" />
            </Array>
          </mxGeometry>
        </mxCell>
        <mxCell id="dU2uv5KBZdzxwUZeEGdV-50" value="Place" style="rhombus;whiteSpace=wrap;html=1;" parent="1" vertex="1">
          <mxGeometry x="180" y="296" width="60" height="60" as="geometry" />
        </mxCell>
        <mxCell id="dU2uv5KBZdzxwUZeEGdV-52" value="" style="endArrow=classic;html=1;rounded=0;entryX=0.62;entryY=1.05;entryDx=0;entryDy=0;entryPerimeter=0;" parent="1" target="DKXciQr0R16n2NeMmEZQ-5" edge="1">
          <mxGeometry width="50" height="50" relative="1" as="geometry">
            <mxPoint x="240" y="322" as="sourcePoint" />
            <mxPoint x="371" y="299" as="targetPoint" />
            <Array as="points">
              <mxPoint x="371" y="322" />
            </Array>
          </mxGeometry>
        </mxCell>
        <mxCell id="dU2uv5KBZdzxwUZeEGdV-53" value="" style="endArrow=none;html=1;rounded=0;exitX=0.75;exitY=0;exitDx=0;exitDy=0;entryX=0.638;entryY=1.028;entryDx=0;entryDy=0;entryPerimeter=0;" parent="1" edge="1">
          <mxGeometry width="50" height="50" relative="1" as="geometry">
            <mxPoint x="71.00000000000045" y="369.5" as="sourcePoint" />
            <mxPoint x="57.03999999999951" y="332.0079999999998" as="targetPoint" />
          </mxGeometry>
        </mxCell>
        <mxCell id="dU2uv5KBZdzxwUZeEGdV-54" value="customer_id" style="ellipse;whiteSpace=wrap;html=1;" parent="1" vertex="1">
          <mxGeometry y="292" width="80" height="36" as="geometry" />
        </mxCell>
        <mxCell id="dU2uv5KBZdzxwUZeEGdV-55" value="" style="endArrow=none;html=1;rounded=0;exitX=0.5;exitY=0;exitDx=0;exitDy=0;" parent="1" edge="1">
          <mxGeometry width="50" height="50" relative="1" as="geometry">
            <mxPoint x="46.000000000000455" y="369.5" as="sourcePoint" />
            <mxPoint x="-4" y="331" as="targetPoint" />
          </mxGeometry>
        </mxCell>
        <mxCell id="dU2uv5KBZdzxwUZeEGdV-56" value="location" style="ellipse;whiteSpace=wrap;html=1;" parent="1" vertex="1">
          <mxGeometry x="-64" y="311" width="70" height="30" as="geometry" />
        </mxCell>
        <mxCell id="dU2uv5KBZdzxwUZeEGdV-57" value="" style="endArrow=none;html=1;rounded=0;exitX=0;exitY=0;exitDx=0;exitDy=0;" parent="1" source="dU2uv5KBZdzxwUZeEGdV-58" edge="1">
          <mxGeometry width="50" height="50" relative="1" as="geometry">
            <mxPoint x="246" y="421" as="sourcePoint" />
            <mxPoint x="-44" y="361" as="targetPoint" />
          </mxGeometry>
        </mxCell>
        <mxCell id="dU2uv5KBZdzxwUZeEGdV-59" value="" style="endArrow=none;html=1;rounded=0;exitX=0;exitY=0;exitDx=0;exitDy=0;" parent="1" target="dU2uv5KBZdzxwUZeEGdV-58" edge="1">
          <mxGeometry width="50" height="50" relative="1" as="geometry">
            <mxPoint x="-3.9999999999995453" y="369.5" as="sourcePoint" />
            <mxPoint x="-44" y="361" as="targetPoint" />
          </mxGeometry>
        </mxCell>
        <mxCell id="dU2uv5KBZdzxwUZeEGdV-58" value="custname" style="ellipse;whiteSpace=wrap;html=1;" parent="1" vertex="1">
          <mxGeometry x="-104" y="344" width="70" height="37" as="geometry" />
        </mxCell>
        <mxCell id="dU2uv5KBZdzxwUZeEGdV-60" value="" style="endArrow=none;html=1;rounded=0;exitX=1;exitY=0.5;exitDx=0;exitDy=0;" parent="1" source="DKXciQr0R16n2NeMmEZQ-11" target="dU2uv5KBZdzxwUZeEGdV-61" edge="1">
          <mxGeometry width="50" height="50" relative="1" as="geometry">
            <mxPoint x="167" y="534" as="sourcePoint" />
            <mxPoint x="27" y="624" as="targetPoint" />
          </mxGeometry>
        </mxCell>
        <mxCell id="dU2uv5KBZdzxwUZeEGdV-61" value="hospital" style="ellipse;whiteSpace=wrap;html=1;" parent="1" vertex="1">
          <mxGeometry x="6" y="594" width="70" height="30" as="geometry" />
        </mxCell>
        <mxCell id="dU2uv5KBZdzxwUZeEGdV-62" value="" style="endArrow=none;html=1;rounded=0;entryX=0.86;entryY=0;entryDx=0;entryDy=0;entryPerimeter=0;" parent="1" target="DKXciQr0R16n2NeMmEZQ-11" edge="1">
          <mxGeometry width="50" height="50" relative="1" as="geometry">
            <mxPoint x="-17" y="594" as="sourcePoint" />
            <mxPoint x="217" y="484" as="targetPoint" />
          </mxGeometry>
        </mxCell>
        <mxCell id="dU2uv5KBZdzxwUZeEGdV-63" value="specialty" style="ellipse;whiteSpace=wrap;html=1;" parent="1" vertex="1">
          <mxGeometry x="-63" y="570" width="80" height="30" as="geometry" />
        </mxCell>
        <mxCell id="dU2uv5KBZdzxwUZeEGdV-64" value="" style="endArrow=none;html=1;rounded=0;exitX=0.5;exitY=0;exitDx=0;exitDy=0;" parent="1" source="DKXciQr0R16n2NeMmEZQ-11" edge="1">
          <mxGeometry width="50" height="50" relative="1" as="geometry">
            <mxPoint x="167" y="534" as="sourcePoint" />
            <mxPoint x="-83" y="584" as="targetPoint" />
          </mxGeometry>
        </mxCell>
        <mxCell id="dU2uv5KBZdzxwUZeEGdV-65" value="user_id" style="ellipse;whiteSpace=wrap;html=1;" parent="1" vertex="1">
          <mxGeometry x="-143" y="564" width="80" height="26" as="geometry" />
        </mxCell>
        <mxCell id="dU2uv5KBZdzxwUZeEGdV-66" value="" style="endArrow=none;html=1;rounded=0;exitX=0;exitY=0.25;exitDx=0;exitDy=0;" parent="1" source="DKXciQr0R16n2NeMmEZQ-11" edge="1">
          <mxGeometry width="50" height="50" relative="1" as="geometry">
            <mxPoint x="167" y="534" as="sourcePoint" />
            <mxPoint x="-133" y="614" as="targetPoint" />
          </mxGeometry>
        </mxCell>
        <mxCell id="dU2uv5KBZdzxwUZeEGdV-67" value="doctor_id" style="ellipse;whiteSpace=wrap;html=1;" parent="1" vertex="1">
          <mxGeometry x="-203" y="590" width="80" height="30" as="geometry" />
        </mxCell>
        <mxCell id="dU2uv5KBZdzxwUZeEGdV-68" value="" style="endArrow=none;html=1;rounded=0;exitX=0.08;exitY=0;exitDx=0;exitDy=0;exitPerimeter=0;" parent="1" source="DKXciQr0R16n2NeMmEZQ-10" edge="1">
          <mxGeometry width="50" height="50" relative="1" as="geometry">
            <mxPoint x="97" y="534" as="sourcePoint" />
            <mxPoint x="127" y="574" as="targetPoint" />
          </mxGeometry>
        </mxCell>
        <mxCell id="dU2uv5KBZdzxwUZeEGdV-69" value="patient_id" style="ellipse;whiteSpace=wrap;html=1;" parent="1" vertex="1">
          <mxGeometry x="56" y="554" width="86.5" height="30" as="geometry" />
        </mxCell>
        <mxCell id="dU2uv5KBZdzxwUZeEGdV-72" value="" style="endArrow=none;html=1;rounded=0;exitX=0.75;exitY=0;exitDx=0;exitDy=0;entryX=0.222;entryY=1;entryDx=0;entryDy=0;entryPerimeter=0;" parent="1" source="DKXciQr0R16n2NeMmEZQ-10" target="dU2uv5KBZdzxwUZeEGdV-75" edge="1">
          <mxGeometry width="50" height="50" relative="1" as="geometry">
            <mxPoint x="199" y="598" as="sourcePoint" />
            <mxPoint x="232.97000000000003" y="567.99" as="targetPoint" />
          </mxGeometry>
        </mxCell>
        <mxCell id="dU2uv5KBZdzxwUZeEGdV-73" value="" style="endArrow=none;html=1;rounded=0;exitX=0.5;exitY=0;exitDx=0;exitDy=0;entryX=0.5;entryY=1;entryDx=0;entryDy=0;" parent="1" source="DKXciQr0R16n2NeMmEZQ-10" target="dU2uv5KBZdzxwUZeEGdV-74" edge="1">
          <mxGeometry width="50" height="50" relative="1" as="geometry">
            <mxPoint x="97" y="534" as="sourcePoint" />
            <mxPoint x="187" y="554" as="targetPoint" />
          </mxGeometry>
        </mxCell>
        <mxCell id="dU2uv5KBZdzxwUZeEGdV-74" value="user_id" style="ellipse;whiteSpace=wrap;html=1;" parent="1" vertex="1">
          <mxGeometry x="126" y="530" width="80" height="30" as="geometry" />
        </mxCell>
        <mxCell id="dU2uv5KBZdzxwUZeEGdV-75" value="blood_type" style="ellipse;whiteSpace=wrap;html=1;" parent="1" vertex="1">
          <mxGeometry x="207" y="514" width="90" height="30" as="geometry" />
        </mxCell>
        <mxCell id="dU2uv5KBZdzxwUZeEGdV-76" value="order_id" style="ellipse;whiteSpace=wrap;html=1;" parent="1" vertex="1">
          <mxGeometry x="269" y="194" width="70" height="30" as="geometry" />
        </mxCell>
        <mxCell id="dU2uv5KBZdzxwUZeEGdV-77" value="" style="endArrow=none;html=1;rounded=0;exitX=0.657;exitY=1;exitDx=0;exitDy=0;exitPerimeter=0;" parent="1" source="dU2uv5KBZdzxwUZeEGdV-76" edge="1">
          <mxGeometry width="50" height="50" relative="1" as="geometry">
            <mxPoint x="459" y="372" as="sourcePoint" />
            <mxPoint x="322" y="250" as="targetPoint" />
          </mxGeometry>
        </mxCell>
        <mxCell id="dU2uv5KBZdzxwUZeEGdV-78" value="product_id" style="ellipse;whiteSpace=wrap;html=1;" parent="1" vertex="1">
          <mxGeometry x="-310" y="105" width="80" height="30" as="geometry" />
        </mxCell>
        <mxCell id="dU2uv5KBZdzxwUZeEGdV-79" value="" style="endArrow=none;html=1;rounded=0;entryX=0.157;entryY=0.1;entryDx=0;entryDy=0;entryPerimeter=0;" parent="1" edge="1">
          <mxGeometry width="50" height="50" relative="1" as="geometry">
            <mxPoint x="-240" y="130" as="sourcePoint" />
            <mxPoint x="-214.29999999999973" y="157.99999999999977" as="targetPoint" />
          </mxGeometry>
        </mxCell>
        <mxCell id="dU2uv5KBZdzxwUZeEGdV-80" value="stock_qnty" style="ellipse;whiteSpace=wrap;html=1;" parent="1" vertex="1">
          <mxGeometry x="-256" y="75" width="80" height="30" as="geometry" />
        </mxCell>
        <mxCell id="dU2uv5KBZdzxwUZeEGdV-81" value="" style="endArrow=none;html=1;rounded=0;" parent="1" edge="1">
          <mxGeometry width="50" height="50" relative="1" as="geometry">
            <mxPoint x="-200" y="155" as="sourcePoint" />
            <mxPoint x="-200" y="105" as="targetPoint" />
          </mxGeometry>
        </mxCell>
        <mxCell id="dU2uv5KBZdzxwUZeEGdV-82" value="name" style="ellipse;whiteSpace=wrap;html=1;" parent="1" vertex="1">
          <mxGeometry x="-176" y="90" width="70" height="30" as="geometry" />
        </mxCell>
        <mxCell id="dU2uv5KBZdzxwUZeEGdV-83" value="" style="endArrow=none;html=1;rounded=0;exitX=0.271;exitY=1;exitDx=0;exitDy=0;exitPerimeter=0;entryX=0.5;entryY=0;entryDx=0;entryDy=0;" parent="1" source="dU2uv5KBZdzxwUZeEGdV-82" target="DKXciQr0R16n2NeMmEZQ-4" edge="1">
          <mxGeometry width="50" height="50" relative="1" as="geometry">
            <mxPoint x="15" y="234" as="sourcePoint" />
            <mxPoint x="22" y="260" as="targetPoint" />
          </mxGeometry>
        </mxCell>
        <mxCell id="dU2uv5KBZdzxwUZeEGdV-84" value="price" style="ellipse;whiteSpace=wrap;html=1;" parent="1" vertex="1">
          <mxGeometry x="-120" y="118" width="70" height="30" as="geometry" />
        </mxCell>
        <mxCell id="dU2uv5KBZdzxwUZeEGdV-85" value="" style="endArrow=none;html=1;rounded=0;entryX=0;entryY=1;entryDx=0;entryDy=0;exitX=0.871;exitY=0.1;exitDx=0;exitDy=0;exitPerimeter=0;" parent="1" target="dU2uv5KBZdzxwUZeEGdV-84" edge="1">
          <mxGeometry width="50" height="50" relative="1" as="geometry">
            <mxPoint x="-145.89999999999964" y="157.99999999999977" as="sourcePoint" />
            <mxPoint x="-123" y="130" as="targetPoint" />
          </mxGeometry>
        </mxCell>
        <mxCell id="dU2uv5KBZdzxwUZeEGdV-86" value="" style="endArrow=none;html=1;rounded=0;entryX=0.5;entryY=0;entryDx=0;entryDy=0;exitX=0.263;exitY=0.867;exitDx=0;exitDy=0;exitPerimeter=0;" parent="1" source="dU2uv5KBZdzxwUZeEGdV-87" target="DKXciQr0R16n2NeMmEZQ-5" edge="1">
          <mxGeometry width="50" height="50" relative="1" as="geometry">
            <mxPoint x="370" y="220" as="sourcePoint" />
            <mxPoint x="290" y="210" as="targetPoint" />
          </mxGeometry>
        </mxCell>
        <mxCell id="dU2uv5KBZdzxwUZeEGdV-87" value="customer_id" style="ellipse;whiteSpace=wrap;html=1;" parent="1" vertex="1">
          <mxGeometry x="359" y="184" width="80" height="30" as="geometry" />
        </mxCell>
        <mxCell id="dU2uv5KBZdzxwUZeEGdV-88" value="" style="endArrow=none;html=1;rounded=0;exitX=0.75;exitY=0;exitDx=0;exitDy=0;" parent="1" source="DKXciQr0R16n2NeMmEZQ-5" edge="1">
          <mxGeometry width="50" height="50" relative="1" as="geometry">
            <mxPoint x="240" y="260" as="sourcePoint" />
            <mxPoint x="410" y="230" as="targetPoint" />
          </mxGeometry>
        </mxCell>
        <mxCell id="dU2uv5KBZdzxwUZeEGdV-89" value="payment_id&amp;nbsp;" style="ellipse;whiteSpace=wrap;html=1;" parent="1" vertex="1">
          <mxGeometry x="409" y="214" width="71" height="30" as="geometry" />
        </mxCell>
        <mxCell id="dU2uv5KBZdzxwUZeEGdV-90" value="status" style="ellipse;whiteSpace=wrap;html=1;" parent="1" vertex="1">
          <mxGeometry x="429" y="250" width="70" height="30" as="geometry" />
        </mxCell>
        <mxCell id="dU2uv5KBZdzxwUZeEGdV-91" value="" style="endArrow=none;html=1;rounded=0;entryX=0;entryY=0.5;entryDx=0;entryDy=0;exitX=1;exitY=0.5;exitDx=0;exitDy=0;" parent="1" source="DKXciQr0R16n2NeMmEZQ-5" target="dU2uv5KBZdzxwUZeEGdV-90" edge="1">
          <mxGeometry width="50" height="50" relative="1" as="geometry">
            <mxPoint x="240" y="260" as="sourcePoint" />
            <mxPoint x="290" y="210" as="targetPoint" />
          </mxGeometry>
        </mxCell>
        <mxCell id="dU2uv5KBZdzxwUZeEGdV-92" value="" style="endArrow=none;html=1;rounded=0;entryX=1;entryY=1;entryDx=0;entryDy=0;exitX=0;exitY=0.5;exitDx=0;exitDy=0;" parent="1" source="dU2uv5KBZdzxwUZeEGdV-93" target="DKXciQr0R16n2NeMmEZQ-5" edge="1">
          <mxGeometry width="50" height="50" relative="1" as="geometry">
            <mxPoint x="440" y="290" as="sourcePoint" />
            <mxPoint x="290" y="210" as="targetPoint" />
          </mxGeometry>
        </mxCell>
        <mxCell id="dU2uv5KBZdzxwUZeEGdV-93" value="total_amount" style="ellipse;whiteSpace=wrap;html=1;" parent="1" vertex="1">
          <mxGeometry x="439" y="288" width="90" height="30" as="geometry" />
        </mxCell>
        <mxCell id="dU2uv5KBZdzxwUZeEGdV-94" value="" style="endArrow=none;html=1;rounded=0;entryX=0;entryY=0.75;entryDx=0;entryDy=0;" parent="1" target="DKXciQr0R16n2NeMmEZQ-3" edge="1">
          <mxGeometry width="50" height="50" relative="1" as="geometry">
            <mxPoint x="270" y="20" as="sourcePoint" />
            <mxPoint x="290" y="90" as="targetPoint" />
          </mxGeometry>
        </mxCell>
        <mxCell id="dU2uv5KBZdzxwUZeEGdV-95" value="order_id" style="ellipse;whiteSpace=wrap;html=1;" parent="1" vertex="1">
          <mxGeometry x="194" y="5" width="80" height="30" as="geometry" />
        </mxCell>
        <mxCell id="dU2uv5KBZdzxwUZeEGdV-96" value="" style="endArrow=none;html=1;rounded=0;exitX=0;exitY=0.25;exitDx=0;exitDy=0;" parent="1" source="DKXciQr0R16n2NeMmEZQ-3" edge="1">
          <mxGeometry width="50" height="50" relative="1" as="geometry">
            <mxPoint x="240" y="140" as="sourcePoint" />
            <mxPoint x="280" y="-10" as="targetPoint" />
          </mxGeometry>
        </mxCell>
        <mxCell id="dU2uv5KBZdzxwUZeEGdV-97" value="payment_id" style="ellipse;whiteSpace=wrap;html=1;" parent="1" vertex="1">
          <mxGeometry x="194" y="-30" width="90" height="30" as="geometry" />
        </mxCell>
        <mxCell id="dU2uv5KBZdzxwUZeEGdV-98" value="" style="endArrow=none;html=1;rounded=0;exitX=0.21;exitY=0;exitDx=0;exitDy=0;exitPerimeter=0;" parent="1" source="DKXciQr0R16n2NeMmEZQ-3" edge="1">
          <mxGeometry width="50" height="50" relative="1" as="geometry">
            <mxPoint x="322" y="-6" as="sourcePoint" />
            <mxPoint x="297" y="-34" as="targetPoint" />
          </mxGeometry>
        </mxCell>
        <mxCell id="dU2uv5KBZdzxwUZeEGdV-99" value="payment_method" style="ellipse;whiteSpace=wrap;html=1;" parent="1" vertex="1">
          <mxGeometry x="240" y="-65" width="120" height="30" as="geometry" />
        </mxCell>
        <mxCell id="dU2uv5KBZdzxwUZeEGdV-100" value="" style="endArrow=none;html=1;rounded=0;exitX=0.5;exitY=0;exitDx=0;exitDy=0;entryX=0.218;entryY=0.967;entryDx=0;entryDy=0;entryPerimeter=0;" parent="1" source="DKXciQr0R16n2NeMmEZQ-3" target="dU2uv5KBZdzxwUZeEGdV-101" edge="1">
          <mxGeometry width="50" height="50" relative="1" as="geometry">
            <mxPoint x="240" y="140" as="sourcePoint" />
            <mxPoint x="380" y="-40" as="targetPoint" />
          </mxGeometry>
        </mxCell>
        <mxCell id="dU2uv5KBZdzxwUZeEGdV-101" value="payment_date" style="ellipse;whiteSpace=wrap;html=1;" parent="1" vertex="1">
          <mxGeometry x="360" y="-80" width="110" height="30" as="geometry" />
        </mxCell>
        <mxCell id="dU2uv5KBZdzxwUZeEGdV-102" value="" style="endArrow=none;html=1;rounded=0;" parent="1" edge="1">
          <mxGeometry width="50" height="50" relative="1" as="geometry">
            <mxPoint x="391" as="sourcePoint" />
            <mxPoint x="421" y="-18" as="targetPoint" />
          </mxGeometry>
        </mxCell>
        <mxCell id="dU2uv5KBZdzxwUZeEGdV-103" value="amount" style="ellipse;whiteSpace=wrap;html=1;" parent="1" vertex="1">
          <mxGeometry x="410" y="-40" width="70" height="30" as="geometry" />
        </mxCell>
        <mxCell id="dU2uv5KBZdzxwUZeEGdV-104" value="" style="endArrow=none;html=1;rounded=0;exitX=0.07;exitY=0;exitDx=0;exitDy=0;entryX=0.4;entryY=1;entryDx=0;entryDy=0;entryPerimeter=0;exitPerimeter=0;" parent="1" source="DKXciQr0R16n2NeMmEZQ-7" target="dU2uv5KBZdzxwUZeEGdV-105" edge="1">
          <mxGeometry width="50" height="50" relative="1" as="geometry">
            <mxPoint x="680" y="260" as="sourcePoint" />
            <mxPoint x="550" y="200" as="targetPoint" />
          </mxGeometry>
        </mxCell>
        <mxCell id="dU2uv5KBZdzxwUZeEGdV-105" value="student_id" style="ellipse;whiteSpace=wrap;html=1;" parent="1" vertex="1">
          <mxGeometry x="525" y="170" width="90" height="30" as="geometry" />
        </mxCell>
        <mxCell id="dU2uv5KBZdzxwUZeEGdV-106" value="" style="endArrow=none;html=1;rounded=0;entryX=0.244;entryY=1.067;entryDx=0;entryDy=0;entryPerimeter=0;exitX=0.51;exitY=0.1;exitDx=0;exitDy=0;exitPerimeter=0;" parent="1" edge="1">
          <mxGeometry width="50" height="50" relative="1" as="geometry">
            <mxPoint x="610" y="237" as="sourcePoint" />
            <mxPoint x="636.96" y="189.01" as="targetPoint" />
          </mxGeometry>
        </mxCell>
        <mxCell id="dU2uv5KBZdzxwUZeEGdV-107" value="enrollment_date" style="ellipse;whiteSpace=wrap;html=1;" parent="1" vertex="1">
          <mxGeometry x="615" y="160" width="90" height="30" as="geometry" />
        </mxCell>
        <mxCell id="dU2uv5KBZdzxwUZeEGdV-108" value="user_id" style="ellipse;whiteSpace=wrap;html=1;" parent="1" vertex="1">
          <mxGeometry x="679" y="184" width="90" height="30" as="geometry" />
        </mxCell>
        <mxCell id="dU2uv5KBZdzxwUZeEGdV-109" value="" style="endArrow=none;html=1;rounded=0;exitX=0.75;exitY=0;exitDx=0;exitDy=0;" parent="1" source="DKXciQr0R16n2NeMmEZQ-7" target="dU2uv5KBZdzxwUZeEGdV-108" edge="1">
          <mxGeometry width="50" height="50" relative="1" as="geometry">
            <mxPoint x="680" y="260" as="sourcePoint" />
            <mxPoint x="730" y="210" as="targetPoint" />
          </mxGeometry>
        </mxCell>
        <mxCell id="dU2uv5KBZdzxwUZeEGdV-110" value="user_id" style="ellipse;whiteSpace=wrap;html=1;" parent="1" vertex="1">
          <mxGeometry x="-114" y="390" width="70" height="30" as="geometry" />
        </mxCell>
        <mxCell id="dU2uv5KBZdzxwUZeEGdV-111" value="" style="endArrow=none;html=1;rounded=0;entryX=0;entryY=0.5;entryDx=0;entryDy=0;exitX=1;exitY=0.5;exitDx=0;exitDy=0;" parent="1" source="dU2uv5KBZdzxwUZeEGdV-110" target="DKXciQr0R16n2NeMmEZQ-2" edge="1">
          <mxGeometry width="50" height="50" relative="1" as="geometry">
            <mxPoint x="364.5999999999999" y="366.20000000000005" as="sourcePoint" />
            <mxPoint x="395" y="370" as="targetPoint" />
          </mxGeometry>
        </mxCell>
        <mxCell id="dU2uv5KBZdzxwUZeEGdV-112" value="major" style="ellipse;whiteSpace=wrap;html=1;" parent="1" vertex="1">
          <mxGeometry x="690" y="224" width="70" height="30" as="geometry" />
        </mxCell>
        <mxCell id="dU2uv5KBZdzxwUZeEGdV-113" value="" style="endArrow=none;html=1;rounded=0;entryX=0;entryY=0.5;entryDx=0;entryDy=0;" parent="1" target="dU2uv5KBZdzxwUZeEGdV-112" edge="1">
          <mxGeometry width="50" height="50" relative="1" as="geometry">
            <mxPoint x="660" y="250" as="sourcePoint" />
            <mxPoint x="640" y="210" as="targetPoint" />
          </mxGeometry>
        </mxCell>
        <mxCell id="dU2uv5KBZdzxwUZeEGdV-114" value="user_id" style="ellipse;whiteSpace=wrap;html=1;" parent="1" vertex="1">
          <mxGeometry x="850" y="-21" width="70" height="30" as="geometry" />
        </mxCell>
        <mxCell id="dU2uv5KBZdzxwUZeEGdV-115" value="" style="endArrow=none;html=1;rounded=0;entryX=0.314;entryY=1;entryDx=0;entryDy=0;entryPerimeter=0;exitX=0.25;exitY=0;exitDx=0;exitDy=0;" parent="1" source="DKXciQr0R16n2NeMmEZQ-6" target="dU2uv5KBZdzxwUZeEGdV-114" edge="1">
          <mxGeometry width="50" height="50" relative="1" as="geometry">
            <mxPoint x="590" y="100" as="sourcePoint" />
            <mxPoint x="640" y="50" as="targetPoint" />
          </mxGeometry>
        </mxCell>
        <mxCell id="dU2uv5KBZdzxwUZeEGdV-116" value="professor_id" style="ellipse;whiteSpace=wrap;html=1;" parent="1" vertex="1">
          <mxGeometry x="900" y="-52" width="80" height="31" as="geometry" />
        </mxCell>
        <mxCell id="dU2uv5KBZdzxwUZeEGdV-117" value="" style="endArrow=none;html=1;rounded=0;entryX=0.5;entryY=1;entryDx=0;entryDy=0;" parent="1" source="DKXciQr0R16n2NeMmEZQ-6" target="dU2uv5KBZdzxwUZeEGdV-116" edge="1">
          <mxGeometry width="50" height="50" relative="1" as="geometry">
            <mxPoint x="590" y="100" as="sourcePoint" />
            <mxPoint x="640" y="50" as="targetPoint" />
          </mxGeometry>
        </mxCell>
        <mxCell id="dU2uv5KBZdzxwUZeEGdV-119" value="&amp;nbsp;&amp;nbsp;&lt;br&gt;department&lt;div&gt;&lt;br/&gt;&lt;/div&gt;" style="ellipse;whiteSpace=wrap;html=1;" parent="1" vertex="1">
          <mxGeometry x="931" y="-10" width="100" height="30" as="geometry" />
        </mxCell>
        <mxCell id="dU2uv5KBZdzxwUZeEGdV-120" value="" style="endArrow=none;html=1;rounded=0;entryX=0.24;entryY=1.033;entryDx=0;entryDy=0;entryPerimeter=0;" parent="1" edge="1">
          <mxGeometry width="50" height="50" relative="1" as="geometry">
            <mxPoint x="895" y="60" as="sourcePoint" />
            <mxPoint x="954" y="17.99000000000001" as="targetPoint" />
          </mxGeometry>
        </mxCell>
        <mxCell id="dU2uv5KBZdzxwUZeEGdV-121" value="specialization" style="ellipse;whiteSpace=wrap;html=1;" parent="1" vertex="1">
          <mxGeometry x="960" y="30" width="110" height="30" as="geometry" />
        </mxCell>
        <mxCell id="dU2uv5KBZdzxwUZeEGdV-122" value="" style="endArrow=none;html=1;rounded=0;exitX=1;exitY=0.25;exitDx=0;exitDy=0;" parent="1" source="DKXciQr0R16n2NeMmEZQ-6" target="dU2uv5KBZdzxwUZeEGdV-121" edge="1">
          <mxGeometry width="50" height="50" relative="1" as="geometry">
            <mxPoint x="750" y="100" as="sourcePoint" />
            <mxPoint x="800" y="50" as="targetPoint" />
          </mxGeometry>
        </mxCell>
        <mxCell id="dU2uv5KBZdzxwUZeEGdV-123" value="" style="endArrow=none;html=1;rounded=0;exitX=0;exitY=0;exitDx=0;exitDy=0;" parent="1" source="DKXciQr0R16n2NeMmEZQ-9" edge="1">
          <mxGeometry width="50" height="50" relative="1" as="geometry">
            <mxPoint x="750" y="100" as="sourcePoint" />
            <mxPoint x="580" as="targetPoint" />
          </mxGeometry>
        </mxCell>
        <mxCell id="dU2uv5KBZdzxwUZeEGdV-124" value="course_id" style="ellipse;whiteSpace=wrap;html=1;" parent="1" vertex="1">
          <mxGeometry x="509" y="-10" width="90" height="30" as="geometry" />
        </mxCell>
        <mxCell id="dU2uv5KBZdzxwUZeEGdV-125" value="professor_id" style="ellipse;whiteSpace=wrap;html=1;" parent="1" vertex="1">
          <mxGeometry x="525" y="-50" width="110" height="30" as="geometry" />
        </mxCell>
        <mxCell id="dU2uv5KBZdzxwUZeEGdV-126" value="" style="endArrow=none;html=1;rounded=0;" parent="1" source="DKXciQr0R16n2NeMmEZQ-9" edge="1">
          <mxGeometry width="50" height="50" relative="1" as="geometry">
            <mxPoint x="750" y="100" as="sourcePoint" />
            <mxPoint x="604" y="-20" as="targetPoint" />
          </mxGeometry>
        </mxCell>
        <mxCell id="dU2uv5KBZdzxwUZeEGdV-127" value="title" style="ellipse;whiteSpace=wrap;html=1;" parent="1" vertex="1">
          <mxGeometry x="635" y="-63" width="60" height="28" as="geometry" />
        </mxCell>
        <mxCell id="dU2uv5KBZdzxwUZeEGdV-128" value="" style="endArrow=none;html=1;rounded=0;entryX=0.5;entryY=1;entryDx=0;entryDy=0;" parent="1" source="DKXciQr0R16n2NeMmEZQ-9" target="dU2uv5KBZdzxwUZeEGdV-127" edge="1">
          <mxGeometry width="50" height="50" relative="1" as="geometry">
            <mxPoint x="750" y="100" as="sourcePoint" />
            <mxPoint x="800" y="50" as="targetPoint" />
          </mxGeometry>
        </mxCell>
        <mxCell id="dU2uv5KBZdzxwUZeEGdV-129" value="" style="endArrow=none;html=1;rounded=0;exitX=0.75;exitY=0;exitDx=0;exitDy=0;" parent="1" source="DKXciQr0R16n2NeMmEZQ-9" edge="1">
          <mxGeometry width="50" height="50" relative="1" as="geometry">
            <mxPoint x="750" y="100" as="sourcePoint" />
            <mxPoint x="700" y="10" as="targetPoint" />
          </mxGeometry>
        </mxCell>
        <mxCell id="dU2uv5KBZdzxwUZeEGdV-130" value="department" style="ellipse;whiteSpace=wrap;html=1;" parent="1" vertex="1">
          <mxGeometry x="673" y="-20" width="70" height="30" as="geometry" />
        </mxCell>
        <mxCell id="dU2uv5KBZdzxwUZeEGdV-131" value="" style="endArrow=none;html=1;rounded=0;entryX=0;entryY=0.25;entryDx=0;entryDy=0;" parent="1" target="dU2uv5KBZdzxwUZeEGdV-33" edge="1">
          <mxGeometry width="50" height="50" relative="1" as="geometry">
            <mxPoint x="480" y="110" as="sourcePoint" />
            <mxPoint x="760" y="90" as="targetPoint" />
          </mxGeometry>
        </mxCell>
        <mxCell id="dU2uv5KBZdzxwUZeEGdV-132" value="enrollment_id" style="ellipse;whiteSpace=wrap;html=1;" parent="1" vertex="1">
          <mxGeometry x="394.5" y="94" width="100" height="30" as="geometry" />
        </mxCell>
        <mxCell id="dU2uv5KBZdzxwUZeEGdV-133" value="" style="endArrow=none;html=1;rounded=0;entryX=0.13;entryY=-0.025;entryDx=0;entryDy=0;entryPerimeter=0;" parent="1" target="dU2uv5KBZdzxwUZeEGdV-33" edge="1">
          <mxGeometry width="50" height="50" relative="1" as="geometry">
            <mxPoint x="500" y="90" as="sourcePoint" />
            <mxPoint x="680" y="90" as="targetPoint" />
          </mxGeometry>
        </mxCell>
        <mxCell id="dU2uv5KBZdzxwUZeEGdV-134" value="student_id" style="ellipse;whiteSpace=wrap;html=1;" parent="1" vertex="1">
          <mxGeometry x="447" y="60" width="90" height="30" as="geometry" />
        </mxCell>
        <mxCell id="dU2uv5KBZdzxwUZeEGdV-135" value="" style="endArrow=none;html=1;rounded=0;exitX=0.32;exitY=0;exitDx=0;exitDy=0;entryX=0.411;entryY=1;entryDx=0;entryDy=0;entryPerimeter=0;exitPerimeter=0;" parent="1" source="dU2uv5KBZdzxwUZeEGdV-33" target="dU2uv5KBZdzxwUZeEGdV-137" edge="1">
          <mxGeometry width="50" height="50" relative="1" as="geometry">
            <mxPoint x="558" y="109" as="sourcePoint" />
            <mxPoint x="556" y="76" as="targetPoint" />
          </mxGeometry>
        </mxCell>
        <mxCell id="dU2uv5KBZdzxwUZeEGdV-137" value="course_id" style="ellipse;whiteSpace=wrap;html=1;" parent="1" vertex="1">
          <mxGeometry x="519" y="30" width="90" height="30" as="geometry" />
        </mxCell>
        <mxCell id="dU2uv5KBZdzxwUZeEGdV-138" value="year" style="ellipse;whiteSpace=wrap;html=1;" parent="1" vertex="1">
          <mxGeometry x="563" y="68" width="65" height="24" as="geometry" />
        </mxCell>
        <mxCell id="dU2uv5KBZdzxwUZeEGdV-139" value="" style="endArrow=none;html=1;rounded=0;exitX=0.5;exitY=0;exitDx=0;exitDy=0;entryX=0.5;entryY=1;entryDx=0;entryDy=0;" parent="1" source="dU2uv5KBZdzxwUZeEGdV-33" target="dU2uv5KBZdzxwUZeEGdV-138" edge="1">
          <mxGeometry width="50" height="50" relative="1" as="geometry">
            <mxPoint x="630" y="140" as="sourcePoint" />
            <mxPoint x="680" y="90" as="targetPoint" />
          </mxGeometry>
        </mxCell>
        <mxCell id="dU2uv5KBZdzxwUZeEGdV-140" value="user_id" style="ellipse;whiteSpace=wrap;html=1;" parent="1" vertex="1">
          <mxGeometry x="347.5" y="374" width="80" height="30" as="geometry" />
        </mxCell>
        <mxCell id="dU2uv5KBZdzxwUZeEGdV-141" value="" style="endArrow=none;html=1;rounded=0;exitX=1;exitY=1;exitDx=0;exitDy=0;" parent="1" source="dU2uv5KBZdzxwUZeEGdV-140" edge="1">
          <mxGeometry width="50" height="50" relative="1" as="geometry">
            <mxPoint x="474" y="419" as="sourcePoint" />
            <mxPoint x="444" y="409.50757561168075" as="targetPoint" />
          </mxGeometry>
        </mxCell>
        <mxCell id="dU2uv5KBZdzxwUZeEGdV-143" value="" style="endArrow=none;html=1;rounded=0;entryX=0.25;entryY=0;entryDx=0;entryDy=0;" parent="1" target="DKXciQr0R16n2NeMmEZQ-1" edge="1">
          <mxGeometry width="50" height="50" relative="1" as="geometry">
            <mxPoint x="475" y="382" as="sourcePoint" />
            <mxPoint x="472.03600000000006" y="398" as="targetPoint" />
          </mxGeometry>
        </mxCell>
        <mxCell id="dU2uv5KBZdzxwUZeEGdV-144" value="email" style="ellipse;whiteSpace=wrap;html=1;" parent="1" vertex="1">
          <mxGeometry x="505" y="366.5" width="70" height="29" as="geometry" />
        </mxCell>
        <mxCell id="dU2uv5KBZdzxwUZeEGdV-145" value="" style="endArrow=none;html=1;rounded=0;entryX=0.5;entryY=1;entryDx=0;entryDy=0;exitX=0.862;exitY=0.118;exitDx=0;exitDy=0;exitPerimeter=0;" parent="1" edge="1">
          <mxGeometry width="50" height="50" relative="1" as="geometry">
            <mxPoint x="497.0279999999998" y="406.01199999999994" as="sourcePoint" />
            <mxPoint x="514" y="392" as="targetPoint" />
          </mxGeometry>
        </mxCell>
        <mxCell id="dU2uv5KBZdzxwUZeEGdV-146" value="name" style="ellipse;whiteSpace=wrap;html=1;" parent="1" vertex="1">
          <mxGeometry x="437" y="359" width="60" height="20" as="geometry" />
        </mxCell>
        <mxCell id="dU2uv5KBZdzxwUZeEGdV-147" value="exam_id" style="ellipse;whiteSpace=wrap;html=1;" parent="1" vertex="1">
          <mxGeometry x="890" y="110" width="80" height="30" as="geometry" />
        </mxCell>
        <mxCell id="dU2uv5KBZdzxwUZeEGdV-148" value="" style="endArrow=none;html=1;rounded=0;entryX=0;entryY=0.25;entryDx=0;entryDy=0;exitX=0.5;exitY=1;exitDx=0;exitDy=0;" parent="1" source="dU2uv5KBZdzxwUZeEGdV-147" target="DKXciQr0R16n2NeMmEZQ-8" edge="1">
          <mxGeometry width="50" height="50" relative="1" as="geometry">
            <mxPoint x="920" y="150" as="sourcePoint" />
            <mxPoint x="960" y="90" as="targetPoint" />
          </mxGeometry>
        </mxCell>
        <mxCell id="dU2uv5KBZdzxwUZeEGdV-149" value="course_id" style="ellipse;whiteSpace=wrap;html=1;" parent="1" vertex="1">
          <mxGeometry x="958" y="88" width="80" height="30" as="geometry" />
        </mxCell>
        <mxCell id="dU2uv5KBZdzxwUZeEGdV-150" value="" style="endArrow=none;html=1;rounded=0;entryX=0.325;entryY=0.867;entryDx=0;entryDy=0;entryPerimeter=0;exitX=0.25;exitY=0;exitDx=0;exitDy=0;" parent="1" source="DKXciQr0R16n2NeMmEZQ-8" target="dU2uv5KBZdzxwUZeEGdV-149" edge="1">
          <mxGeometry width="50" height="50" relative="1" as="geometry">
            <mxPoint x="980" y="150" as="sourcePoint" />
            <mxPoint x="960" y="90" as="targetPoint" />
          </mxGeometry>
        </mxCell>
        <mxCell id="dU2uv5KBZdzxwUZeEGdV-151" value="max_score" style="ellipse;whiteSpace=wrap;html=1;" parent="1" vertex="1">
          <mxGeometry x="1035" y="73" width="80" height="30" as="geometry" />
        </mxCell>
        <mxCell id="dU2uv5KBZdzxwUZeEGdV-152" value="" style="endArrow=none;html=1;rounded=0;entryX=0.238;entryY=1;entryDx=0;entryDy=0;entryPerimeter=0;exitX=0.5;exitY=0;exitDx=0;exitDy=0;" parent="1" source="DKXciQr0R16n2NeMmEZQ-8" target="dU2uv5KBZdzxwUZeEGdV-151" edge="1">
          <mxGeometry width="50" height="50" relative="1" as="geometry">
            <mxPoint x="910" y="140" as="sourcePoint" />
            <mxPoint x="960" y="90" as="targetPoint" />
          </mxGeometry>
        </mxCell>
        <mxCell id="dU2uv5KBZdzxwUZeEGdV-153" value="duration" style="ellipse;whiteSpace=wrap;html=1;" parent="1" vertex="1">
          <mxGeometry x="1060" y="110" width="80" height="30" as="geometry" />
        </mxCell>
        <mxCell id="dU2uv5KBZdzxwUZeEGdV-154" value="" style="endArrow=none;html=1;rounded=0;exitX=0.75;exitY=0;exitDx=0;exitDy=0;" parent="1" source="DKXciQr0R16n2NeMmEZQ-8" target="dU2uv5KBZdzxwUZeEGdV-153" edge="1">
          <mxGeometry width="50" height="50" relative="1" as="geometry">
            <mxPoint x="910" y="140" as="sourcePoint" />
            <mxPoint x="960" y="90" as="targetPoint" />
          </mxGeometry>
        </mxCell>
        <mxCell id="dU2uv5KBZdzxwUZeEGdV-155" value="result_id" style="ellipse;whiteSpace=wrap;html=1;" parent="1" vertex="1">
          <mxGeometry x="907" y="250" width="90" height="26" as="geometry" />
        </mxCell>
        <mxCell id="dU2uv5KBZdzxwUZeEGdV-156" value="exam_id" style="ellipse;whiteSpace=wrap;html=1;" parent="1" vertex="1">
          <mxGeometry x="940" y="215" width="80" height="29" as="geometry" />
        </mxCell>
        <mxCell id="dU2uv5KBZdzxwUZeEGdV-157" value="student_id" style="ellipse;whiteSpace=wrap;html=1;" parent="1" vertex="1">
          <mxGeometry x="1020" y="195" width="80" height="29" as="geometry" />
        </mxCell>
        <mxCell id="dU2uv5KBZdzxwUZeEGdV-158" value="score" style="ellipse;whiteSpace=wrap;html=1;" parent="1" vertex="1">
          <mxGeometry x="1070" y="231" width="70" height="29" as="geometry" />
        </mxCell>
        <mxCell id="dU2uv5KBZdzxwUZeEGdV-159" value="" style="endArrow=none;html=1;rounded=0;exitX=0.933;exitY=0.808;exitDx=0;exitDy=0;entryX=0;entryY=0;entryDx=0;entryDy=0;exitPerimeter=0;" parent="1" source="dU2uv5KBZdzxwUZeEGdV-155" target="dU2uv5KBZdzxwUZeEGdV-25" edge="1">
          <mxGeometry width="50" height="50" relative="1" as="geometry">
            <mxPoint x="910" y="140" as="sourcePoint" />
            <mxPoint x="960" y="90" as="targetPoint" />
          </mxGeometry>
        </mxCell>
        <mxCell id="dU2uv5KBZdzxwUZeEGdV-160" value="" style="endArrow=none;html=1;rounded=0;exitX=1;exitY=1;exitDx=0;exitDy=0;entryX=0.189;entryY=0;entryDx=0;entryDy=0;entryPerimeter=0;" parent="1" source="dU2uv5KBZdzxwUZeEGdV-156" target="dU2uv5KBZdzxwUZeEGdV-25" edge="1">
          <mxGeometry width="50" height="50" relative="1" as="geometry">
            <mxPoint x="910" y="140" as="sourcePoint" />
            <mxPoint x="960" y="90" as="targetPoint" />
          </mxGeometry>
        </mxCell>
        <mxCell id="dU2uv5KBZdzxwUZeEGdV-161" value="" style="endArrow=none;html=1;rounded=0;entryX=0.313;entryY=0.897;entryDx=0;entryDy=0;entryPerimeter=0;exitX=0.25;exitY=0;exitDx=0;exitDy=0;" parent="1" edge="1">
          <mxGeometry width="50" height="50" relative="1" as="geometry">
            <mxPoint x="1044.5" y="277" as="sourcePoint" />
            <mxPoint x="1047.04" y="222.01299999999992" as="targetPoint" />
          </mxGeometry>
        </mxCell>
        <mxCell id="dU2uv5KBZdzxwUZeEGdV-162" value="" style="endArrow=none;html=1;rounded=0;exitX=0.5;exitY=0;exitDx=0;exitDy=0;entryX=0;entryY=1;entryDx=0;entryDy=0;" parent="1" source="dU2uv5KBZdzxwUZeEGdV-25" target="dU2uv5KBZdzxwUZeEGdV-158" edge="1">
          <mxGeometry width="50" height="50" relative="1" as="geometry">
            <mxPoint x="910" y="140" as="sourcePoint" />
            <mxPoint x="960" y="90" as="targetPoint" />
          </mxGeometry>
        </mxCell>
        <mxCell id="dU2uv5KBZdzxwUZeEGdV-163" value="" style="endArrow=none;html=1;rounded=0;" parent="1" edge="1">
          <mxGeometry width="50" height="50" relative="1" as="geometry">
            <mxPoint x="226" y="594" as="sourcePoint" />
            <mxPoint x="267" y="564" as="targetPoint" />
          </mxGeometry>
        </mxCell>
        <mxCell id="dU2uv5KBZdzxwUZeEGdV-164" value="allergies" style="ellipse;whiteSpace=wrap;html=1;" parent="1" vertex="1">
          <mxGeometry x="247" y="551" width="90" height="30" as="geometry" />
        </mxCell>
        <mxCell id="dU2uv5KBZdzxwUZeEGdV-165" value="appointment_id" style="ellipse;whiteSpace=wrap;html=1;" parent="1" vertex="1">
          <mxGeometry x="117" y="645" width="109" height="28" as="geometry" />
        </mxCell>
        <mxCell id="dU2uv5KBZdzxwUZeEGdV-166" value="" style="endArrow=none;html=1;rounded=0;exitX=0.25;exitY=0;exitDx=0;exitDy=0;" parent="1" source="DKXciQr0R16n2NeMmEZQ-12" edge="1">
          <mxGeometry width="50" height="50" relative="1" as="geometry">
            <mxPoint x="47" y="694" as="sourcePoint" />
            <mxPoint x="187" y="674" as="targetPoint" />
          </mxGeometry>
        </mxCell>
        <mxCell id="dU2uv5KBZdzxwUZeEGdV-167" value="patient_id" style="ellipse;whiteSpace=wrap;html=1;" parent="1" vertex="1">
          <mxGeometry x="219.5" y="659" width="75.5" height="28" as="geometry" />
        </mxCell>
        <mxCell id="dU2uv5KBZdzxwUZeEGdV-168" value="" style="endArrow=none;html=1;rounded=0;entryX=0;entryY=1;entryDx=0;entryDy=0;exitX=0.5;exitY=0;exitDx=0;exitDy=0;" parent="1" source="DKXciQr0R16n2NeMmEZQ-12" target="dU2uv5KBZdzxwUZeEGdV-167" edge="1">
          <mxGeometry width="50" height="50" relative="1" as="geometry">
            <mxPoint x="206.99099999999999" y="722.9839999999999" as="sourcePoint" />
            <mxPoint x="212.01" y="692" as="targetPoint" />
          </mxGeometry>
        </mxCell>
        <mxCell id="dU2uv5KBZdzxwUZeEGdV-169" value="doctor_id" style="ellipse;whiteSpace=wrap;html=1;" parent="1" vertex="1">
          <mxGeometry x="233" y="694" width="71" height="24" as="geometry" />
        </mxCell>
        <mxCell id="dU2uv5KBZdzxwUZeEGdV-170" value="" style="endArrow=none;html=1;rounded=0;exitX=0.75;exitY=0;exitDx=0;exitDy=0;" parent="1" source="DKXciQr0R16n2NeMmEZQ-12" edge="1">
          <mxGeometry width="50" height="50" relative="1" as="geometry">
            <mxPoint x="243" y="723" as="sourcePoint" />
            <mxPoint x="253" y="714" as="targetPoint" />
          </mxGeometry>
        </mxCell>
        <mxCell id="dU2uv5KBZdzxwUZeEGdV-173" value="prescription_id" style="ellipse;whiteSpace=wrap;html=1;" parent="1" vertex="1">
          <mxGeometry x="-63" y="794" width="90" height="30" as="geometry" />
        </mxCell>
        <mxCell id="dU2uv5KBZdzxwUZeEGdV-174" value="patient_id" style="ellipse;whiteSpace=wrap;html=1;" parent="1" vertex="1">
          <mxGeometry x="6" y="768" width="70" height="30" as="geometry" />
        </mxCell>
        <mxCell id="dU2uv5KBZdzxwUZeEGdV-175" value="doctor_id" style="ellipse;whiteSpace=wrap;html=1;" parent="1" vertex="1">
          <mxGeometry x="60" y="794" width="90" height="30" as="geometry" />
        </mxCell>
        <mxCell id="dU2uv5KBZdzxwUZeEGdV-176" value="dosage" style="ellipse;whiteSpace=wrap;html=1;" parent="1" vertex="1">
          <mxGeometry x="111.5" y="827" width="80" height="30" as="geometry" />
        </mxCell>
        <mxCell id="dU2uv5KBZdzxwUZeEGdV-177" value="" style="endArrow=none;html=1;rounded=0;exitX=0.25;exitY=0;exitDx=0;exitDy=0;entryX=0.5;entryY=1;entryDx=0;entryDy=0;" parent="1" source="DKXciQr0R16n2NeMmEZQ-14" target="dU2uv5KBZdzxwUZeEGdV-173" edge="1">
          <mxGeometry width="50" height="50" relative="1" as="geometry">
            <mxPoint x="87" y="694" as="sourcePoint" />
            <mxPoint x="137" y="644" as="targetPoint" />
          </mxGeometry>
        </mxCell>
        <mxCell id="dU2uv5KBZdzxwUZeEGdV-178" value="" style="endArrow=none;html=1;rounded=0;exitX=0.5;exitY=0;exitDx=0;exitDy=0;" parent="1" source="DKXciQr0R16n2NeMmEZQ-14" edge="1">
          <mxGeometry width="50" height="50" relative="1" as="geometry">
            <mxPoint x="13" y="847" as="sourcePoint" />
            <mxPoint x="43" y="799" as="targetPoint" />
          </mxGeometry>
        </mxCell>
        <mxCell id="dU2uv5KBZdzxwUZeEGdV-179" value="" style="endArrow=none;html=1;rounded=0;exitX=0.75;exitY=0;exitDx=0;exitDy=0;entryX=0;entryY=1;entryDx=0;entryDy=0;" parent="1" source="DKXciQr0R16n2NeMmEZQ-14" target="dU2uv5KBZdzxwUZeEGdV-175" edge="1">
          <mxGeometry width="50" height="50" relative="1" as="geometry">
            <mxPoint x="87" y="694" as="sourcePoint" />
            <mxPoint x="137" y="644" as="targetPoint" />
          </mxGeometry>
        </mxCell>
        <mxCell id="dU2uv5KBZdzxwUZeEGdV-180" value="" style="endArrow=none;html=1;rounded=0;exitX=1;exitY=0.25;exitDx=0;exitDy=0;entryX=0.044;entryY=0.8;entryDx=0;entryDy=0;entryPerimeter=0;" parent="1" edge="1">
          <mxGeometry width="50" height="50" relative="1" as="geometry">
            <mxPoint x="67" y="860" as="sourcePoint" />
            <mxPoint x="115.01999999999998" y="849" as="targetPoint" />
          </mxGeometry>
        </mxCell>
        <mxCell id="dU2uv5KBZdzxwUZeEGdV-181" value="account_id" style="ellipse;whiteSpace=wrap;html=1;" parent="1" vertex="1">
          <mxGeometry x="663" y="417" width="90" height="24" as="geometry" />
        </mxCell>
        <mxCell id="dU2uv5KBZdzxwUZeEGdV-182" value="user_id" style="ellipse;whiteSpace=wrap;html=1;" parent="1" vertex="1">
          <mxGeometry x="695" y="373" width="80" height="30" as="geometry" />
        </mxCell>
        <mxCell id="dU2uv5KBZdzxwUZeEGdV-183" value="account_type" style="ellipse;whiteSpace=wrap;html=1;" parent="1" vertex="1">
          <mxGeometry x="762" y="345" width="80" height="30" as="geometry" />
        </mxCell>
        <mxCell id="dU2uv5KBZdzxwUZeEGdV-184" value="balance" style="ellipse;whiteSpace=wrap;html=1;" parent="1" vertex="1">
          <mxGeometry x="812" y="374" width="80" height="30" as="geometry" />
        </mxCell>
        <mxCell id="dU2uv5KBZdzxwUZeEGdV-185" value="" style="endArrow=none;html=1;rounded=0;exitX=0.711;exitY=0.917;exitDx=0;exitDy=0;exitPerimeter=0;entryX=0.25;entryY=0;entryDx=0;entryDy=0;" parent="1" target="DKXciQr0R16n2NeMmEZQ-15" edge="1">
          <mxGeometry width="50" height="50" relative="1" as="geometry">
            <mxPoint x="752.9899999999998" y="434.0079999999998" as="sourcePoint" />
            <mxPoint x="986" y="365" as="targetPoint" />
          </mxGeometry>
        </mxCell>
        <mxCell id="dU2uv5KBZdzxwUZeEGdV-186" value="" style="endArrow=none;html=1;rounded=0;entryX=0.5;entryY=0;entryDx=0;entryDy=0;" parent="1" target="DKXciQr0R16n2NeMmEZQ-15" edge="1">
          <mxGeometry width="50" height="50" relative="1" as="geometry">
            <mxPoint x="766" y="400" as="sourcePoint" />
            <mxPoint x="756" y="412" as="targetPoint" />
          </mxGeometry>
        </mxCell>
        <mxCell id="dU2uv5KBZdzxwUZeEGdV-187" value="" style="endArrow=none;html=1;rounded=0;" parent="1" edge="1">
          <mxGeometry width="50" height="50" relative="1" as="geometry">
            <mxPoint x="810" y="447" as="sourcePoint" />
            <mxPoint x="795" y="375" as="targetPoint" />
            <Array as="points">
              <mxPoint x="795" y="375" />
            </Array>
          </mxGeometry>
        </mxCell>
        <mxCell id="dU2uv5KBZdzxwUZeEGdV-189" value="" style="endArrow=none;html=1;rounded=0;exitX=0.66;exitY=0;exitDx=0;exitDy=0;exitPerimeter=0;entryX=0.5;entryY=1;entryDx=0;entryDy=0;" parent="1" target="dU2uv5KBZdzxwUZeEGdV-184" edge="1">
          <mxGeometry width="50" height="50" relative="1" as="geometry">
            <mxPoint x="824" y="449" as="sourcePoint" />
            <mxPoint x="825.715728752497" y="390.60660171781365" as="targetPoint" />
          </mxGeometry>
        </mxCell>
        <mxCell id="dU2uv5KBZdzxwUZeEGdV-190" value="transaction_id" style="ellipse;whiteSpace=wrap;html=1;" parent="1" vertex="1">
          <mxGeometry x="1102" y="447" width="90" height="30" as="geometry" />
        </mxCell>
        <mxCell id="dU2uv5KBZdzxwUZeEGdV-192" value="account_id" style="ellipse;whiteSpace=wrap;html=1;" parent="1" vertex="1">
          <mxGeometry x="1177" y="423" width="90" height="30" as="geometry" />
        </mxCell>
        <mxCell id="dU2uv5KBZdzxwUZeEGdV-193" value="amount" style="ellipse;whiteSpace=wrap;html=1;" parent="1" vertex="1">
          <mxGeometry x="1254" y="449.5" width="90" height="30" as="geometry" />
        </mxCell>
        <mxCell id="dU2uv5KBZdzxwUZeEGdV-194" value="transaction_date" style="ellipse;whiteSpace=wrap;html=1;" parent="1" vertex="1">
          <mxGeometry x="1299" y="487" width="100" height="30" as="geometry" />
        </mxCell>
        <mxCell id="dU2uv5KBZdzxwUZeEGdV-195" value="" style="endArrow=none;html=1;rounded=0;entryX=0.13;entryY=0;entryDx=0;entryDy=0;entryPerimeter=0;exitX=0.656;exitY=1.033;exitDx=0;exitDy=0;exitPerimeter=0;" parent="1" source="dU2uv5KBZdzxwUZeEGdV-190" target="DKXciQr0R16n2NeMmEZQ-16" edge="1">
          <mxGeometry width="50" height="50" relative="1" as="geometry">
            <mxPoint x="1059" y="451" as="sourcePoint" />
            <mxPoint x="1109" y="401" as="targetPoint" />
          </mxGeometry>
        </mxCell>
        <mxCell id="dU2uv5KBZdzxwUZeEGdV-196" value="" style="endArrow=none;html=1;rounded=0;exitX=0.41;exitY=0.025;exitDx=0;exitDy=0;exitPerimeter=0;entryX=0.5;entryY=1;entryDx=0;entryDy=0;" parent="1" source="DKXciQr0R16n2NeMmEZQ-16" edge="1">
          <mxGeometry width="50" height="50" relative="1" as="geometry">
            <mxPoint x="1059" y="451" as="sourcePoint" />
            <mxPoint x="1219" y="455" as="targetPoint" />
          </mxGeometry>
        </mxCell>
        <mxCell id="dU2uv5KBZdzxwUZeEGdV-197" value="" style="endArrow=none;html=1;rounded=0;entryX=0.278;entryY=0.917;entryDx=0;entryDy=0;entryPerimeter=0;exitX=0.6;exitY=0.1;exitDx=0;exitDy=0;exitPerimeter=0;" parent="1" edge="1">
          <mxGeometry width="50" height="50" relative="1" as="geometry">
            <mxPoint x="1218" y="498" as="sourcePoint" />
            <mxPoint x="1268.02" y="474.01" as="targetPoint" />
          </mxGeometry>
        </mxCell>
        <mxCell id="dU2uv5KBZdzxwUZeEGdV-198" value="" style="endArrow=none;html=1;rounded=0;entryX=0;entryY=0.5;entryDx=0;entryDy=0;exitX=1;exitY=0.5;exitDx=0;exitDy=0;" parent="1" source="DKXciQr0R16n2NeMmEZQ-16" target="dU2uv5KBZdzxwUZeEGdV-194" edge="1">
          <mxGeometry width="50" height="50" relative="1" as="geometry">
            <mxPoint x="1228" y="508" as="sourcePoint" />
            <mxPoint x="1278.02" y="484.01" as="targetPoint" />
          </mxGeometry>
        </mxCell>
        <mxCell id="dU2uv5KBZdzxwUZeEGdV-199" value="loan_id" style="ellipse;whiteSpace=wrap;html=1;" parent="1" vertex="1">
          <mxGeometry x="1174" y="335" width="80" height="30" as="geometry" />
        </mxCell>
        <mxCell id="dU2uv5KBZdzxwUZeEGdV-200" value="account_id" style="ellipse;whiteSpace=wrap;html=1;" parent="1" vertex="1">
          <mxGeometry x="1344" y="302" width="80" height="30" as="geometry" />
        </mxCell>
        <mxCell id="dU2uv5KBZdzxwUZeEGdV-201" value="amount" style="ellipse;whiteSpace=wrap;html=1;" parent="1" vertex="1">
          <mxGeometry x="1246" y="306" width="80" height="30" as="geometry" />
        </mxCell>
        <mxCell id="dU2uv5KBZdzxwUZeEGdV-202" value="interest_rate" style="ellipse;whiteSpace=wrap;html=1;" parent="1" vertex="1">
          <mxGeometry x="1399" y="336" width="80" height="30" as="geometry" />
        </mxCell>
        <mxCell id="dU2uv5KBZdzxwUZeEGdV-203" value="" style="endArrow=none;html=1;rounded=0;entryX=0;entryY=0;entryDx=0;entryDy=0;exitX=1;exitY=0.5;exitDx=0;exitDy=0;" parent="1" source="dU2uv5KBZdzxwUZeEGdV-199" target="DKXciQr0R16n2NeMmEZQ-17" edge="1">
          <mxGeometry width="50" height="50" relative="1" as="geometry">
            <mxPoint x="1119" y="421" as="sourcePoint" />
            <mxPoint x="1169" y="371" as="targetPoint" />
          </mxGeometry>
        </mxCell>
        <mxCell id="dU2uv5KBZdzxwUZeEGdV-204" value="" style="endArrow=none;html=1;rounded=0;entryX=0.738;entryY=0.967;entryDx=0;entryDy=0;entryPerimeter=0;exitX=0.344;exitY=-0.062;exitDx=0;exitDy=0;exitPerimeter=0;" parent="1" edge="1">
          <mxGeometry width="50" height="50" relative="1" as="geometry">
            <mxPoint x="1315.96" y="369.02" as="sourcePoint" />
            <mxPoint x="1309.04" y="337.01" as="targetPoint" />
          </mxGeometry>
        </mxCell>
        <mxCell id="dU2uv5KBZdzxwUZeEGdV-205" value="" style="endArrow=none;html=1;rounded=0;entryX=0;entryY=1;entryDx=0;entryDy=0;exitX=0.5;exitY=0;exitDx=0;exitDy=0;" parent="1" source="DKXciQr0R16n2NeMmEZQ-17" edge="1">
          <mxGeometry width="50" height="50" relative="1" as="geometry">
            <mxPoint x="1330" y="377" as="sourcePoint" />
            <mxPoint x="1360.7157287525379" y="330.60660171779773" as="targetPoint" />
          </mxGeometry>
        </mxCell>
        <mxCell id="dU2uv5KBZdzxwUZeEGdV-206" value="" style="endArrow=none;html=1;rounded=0;entryX=0;entryY=0.5;entryDx=0;entryDy=0;exitX=0.833;exitY=0.038;exitDx=0;exitDy=0;exitPerimeter=0;" parent="1" edge="1">
          <mxGeometry width="50" height="50" relative="1" as="geometry">
            <mxPoint x="1363.9699999999998" y="369.02" as="sourcePoint" />
            <mxPoint x="1409" y="360.5" as="targetPoint" />
          </mxGeometry>
        </mxCell>
        <mxCell id="dU2uv5KBZdzxwUZeEGdV-207" value="Can be" style="rhombus;whiteSpace=wrap;html=1;" parent="1" vertex="1">
          <mxGeometry x="705" y="590" width="60" height="60" as="geometry" />
        </mxCell>
        <mxCell id="dU2uv5KBZdzxwUZeEGdV-208" value="Subscriber" style="rounded=0;whiteSpace=wrap;html=1;" parent="1" vertex="1">
          <mxGeometry x="828" y="672" width="90" height="30" as="geometry" />
        </mxCell>
        <mxCell id="dU2uv5KBZdzxwUZeEGdV-209" value="" style="endArrow=classic;html=1;rounded=0;entryX=0;entryY=0.5;entryDx=0;entryDy=0;exitX=1;exitY=0.5;exitDx=0;exitDy=0;" parent="1" source="dU2uv5KBZdzxwUZeEGdV-207" target="dU2uv5KBZdzxwUZeEGdV-208" edge="1">
          <mxGeometry width="50" height="50" relative="1" as="geometry">
            <mxPoint x="807" y="653" as="sourcePoint" />
            <mxPoint x="858" y="563" as="targetPoint" />
            <Array as="points">
              <mxPoint x="807" y="620" />
              <mxPoint x="807" y="687" />
            </Array>
          </mxGeometry>
        </mxCell>
        <mxCell id="dU2uv5KBZdzxwUZeEGdV-210" value="" style="endArrow=classic;html=1;rounded=0;" parent="1" edge="1">
          <mxGeometry width="50" height="50" relative="1" as="geometry">
            <mxPoint x="918" y="687" as="sourcePoint" />
            <mxPoint x="981" y="687" as="targetPoint" />
          </mxGeometry>
        </mxCell>
        <mxCell id="dU2uv5KBZdzxwUZeEGdV-211" value="user_id" style="ellipse;whiteSpace=wrap;html=1;" parent="1" vertex="1">
          <mxGeometry x="828" y="629" width="70" height="30" as="geometry" />
        </mxCell>
        <mxCell id="dU2uv5KBZdzxwUZeEGdV-212" value="" style="endArrow=none;html=1;rounded=0;entryX=0.5;entryY=0;entryDx=0;entryDy=0;exitX=0.5;exitY=1;exitDx=0;exitDy=0;" parent="1" source="dU2uv5KBZdzxwUZeEGdV-211" target="dU2uv5KBZdzxwUZeEGdV-208" edge="1">
          <mxGeometry width="50" height="50" relative="1" as="geometry">
            <mxPoint x="848" y="663" as="sourcePoint" />
            <mxPoint x="858" y="563" as="targetPoint" />
          </mxGeometry>
        </mxCell>
        <mxCell id="dU2uv5KBZdzxwUZeEGdV-213" value="subscriber_id" style="ellipse;whiteSpace=wrap;html=1;" parent="1" vertex="1">
          <mxGeometry x="880" y="594" width="90" height="30" as="geometry" />
        </mxCell>
        <mxCell id="dU2uv5KBZdzxwUZeEGdV-214" value="" style="endArrow=none;html=1;rounded=0;exitX=0.633;exitY=0.133;exitDx=0;exitDy=0;exitPerimeter=0;entryX=0.5;entryY=1;entryDx=0;entryDy=0;" parent="1" edge="1">
          <mxGeometry width="50" height="50" relative="1" as="geometry">
            <mxPoint x="890.9699999999998" y="670.9899999999998" as="sourcePoint" />
            <mxPoint x="909" y="624" as="targetPoint" />
          </mxGeometry>
        </mxCell>
        <mxCell id="dU2uv5KBZdzxwUZeEGdV-215" value="subscription_id" style="ellipse;whiteSpace=wrap;html=1;" parent="1" vertex="1">
          <mxGeometry x="1038" y="623" width="103" height="30" as="geometry" />
        </mxCell>
        <mxCell id="dU2uv5KBZdzxwUZeEGdV-216" value="subscriber_id" style="ellipse;whiteSpace=wrap;html=1;" parent="1" vertex="1">
          <mxGeometry x="1123" y="590" width="90" height="30" as="geometry" />
        </mxCell>
        <mxCell id="dU2uv5KBZdzxwUZeEGdV-217" value="plan_type" style="ellipse;whiteSpace=wrap;html=1;" parent="1" vertex="1">
          <mxGeometry x="1208" y="604" width="90" height="30" as="geometry" />
        </mxCell>
        <mxCell id="dU2uv5KBZdzxwUZeEGdV-218" value="payment_method" style="ellipse;whiteSpace=wrap;html=1;" parent="1" vertex="1">
          <mxGeometry x="1253" y="641" width="105" height="30" as="geometry" />
        </mxCell>
        <mxCell id="dU2uv5KBZdzxwUZeEGdV-219" value="" style="endArrow=none;html=1;rounded=0;exitX=0.699;exitY=1.033;exitDx=0;exitDy=0;exitPerimeter=0;" parent="1" edge="1">
          <mxGeometry width="50" height="50" relative="1" as="geometry">
            <mxPoint x="1100.9969999999998" y="650.9899999999998" as="sourcePoint" />
            <mxPoint x="1125" y="672" as="targetPoint" />
          </mxGeometry>
        </mxCell>
        <mxCell id="dU2uv5KBZdzxwUZeEGdV-220" value="" style="endArrow=none;html=1;rounded=0;exitX=0.5;exitY=1;exitDx=0;exitDy=0;" parent="1" edge="1">
          <mxGeometry width="50" height="50" relative="1" as="geometry">
            <mxPoint x="1158" y="625" as="sourcePoint" />
            <mxPoint x="1158" y="665" as="targetPoint" />
          </mxGeometry>
        </mxCell>
        <mxCell id="dU2uv5KBZdzxwUZeEGdV-221" value="" style="endArrow=none;html=1;rounded=0;exitX=0;exitY=1;exitDx=0;exitDy=0;entryX=0.5;entryY=0;entryDx=0;entryDy=0;" parent="1" source="dU2uv5KBZdzxwUZeEGdV-217" target="DKXciQr0R16n2NeMmEZQ-20" edge="1">
          <mxGeometry width="50" height="50" relative="1" as="geometry">
            <mxPoint x="1120.9969999999998" y="670.9899999999998" as="sourcePoint" />
            <mxPoint x="1145" y="692" as="targetPoint" />
          </mxGeometry>
        </mxCell>
        <mxCell id="dU2uv5KBZdzxwUZeEGdV-222" value="" style="endArrow=none;html=1;rounded=0;exitX=0;exitY=0.5;exitDx=0;exitDy=0;entryX=0.83;entryY=0;entryDx=0;entryDy=0;entryPerimeter=0;" parent="1" source="dU2uv5KBZdzxwUZeEGdV-218" target="DKXciQr0R16n2NeMmEZQ-20" edge="1">
          <mxGeometry width="50" height="50" relative="1" as="geometry">
            <mxPoint x="1130.9969999999998" y="680.9899999999998" as="sourcePoint" />
            <mxPoint x="1155" y="702" as="targetPoint" />
          </mxGeometry>
        </mxCell>
        <mxCell id="dU2uv5KBZdzxwUZeEGdV-223" value="subscription_type" style="ellipse;whiteSpace=wrap;html=1;" parent="1" vertex="1">
          <mxGeometry x="926" y="621" width="103" height="30" as="geometry" />
        </mxCell>
        <mxCell id="dU2uv5KBZdzxwUZeEGdV-224" value="" style="endArrow=none;html=1;rounded=0;exitX=0.778;exitY=0.033;exitDx=0;exitDy=0;entryX=0.087;entryY=0.833;entryDx=0;entryDy=0;exitPerimeter=0;entryPerimeter=0;" parent="1" source="dU2uv5KBZdzxwUZeEGdV-208" target="dU2uv5KBZdzxwUZeEGdV-223" edge="1">
          <mxGeometry width="50" height="50" relative="1" as="geometry">
            <mxPoint x="900.9699999999998" y="682.9899999999998" as="sourcePoint" />
            <mxPoint x="919" y="636" as="targetPoint" />
          </mxGeometry>
        </mxCell>
        <mxCell id="dU2uv5KBZdzxwUZeEGdV-225" value="playlist_id" style="ellipse;whiteSpace=wrap;html=1;" parent="1" vertex="1">
          <mxGeometry x="654" y="931" width="84" height="30" as="geometry" />
        </mxCell>
        <mxCell id="dU2uv5KBZdzxwUZeEGdV-227" value="playlist_name" style="ellipse;whiteSpace=wrap;html=1;" parent="1" vertex="1">
          <mxGeometry x="803" y="909" width="90" height="30" as="geometry" />
        </mxCell>
        <mxCell id="dU2uv5KBZdzxwUZeEGdV-228" value="created_on" style="ellipse;whiteSpace=wrap;html=1;" parent="1" vertex="1">
          <mxGeometry x="821" y="951" width="90" height="30" as="geometry" />
        </mxCell>
        <mxCell id="dU2uv5KBZdzxwUZeEGdV-229" value="release_date" style="ellipse;whiteSpace=wrap;html=1;" parent="1" vertex="1">
          <mxGeometry x="1225" y="971" width="90" height="30" as="geometry" />
        </mxCell>
        <mxCell id="dU2uv5KBZdzxwUZeEGdV-230" value="song_id" style="ellipse;whiteSpace=wrap;html=1;" parent="1" vertex="1">
          <mxGeometry x="1051" y="931" width="90" height="30" as="geometry" />
        </mxCell>
        <mxCell id="dU2uv5KBZdzxwUZeEGdV-231" value="title" style="ellipse;whiteSpace=wrap;html=1;" parent="1" vertex="1">
          <mxGeometry x="1143" y="909" width="70" height="30" as="geometry" />
        </mxCell>
        <mxCell id="dU2uv5KBZdzxwUZeEGdV-232" value="artist" style="ellipse;whiteSpace=wrap;html=1;" parent="1" vertex="1">
          <mxGeometry x="1198" y="933" width="90" height="30" as="geometry" />
        </mxCell>
        <mxCell id="dU2uv5KBZdzxwUZeEGdV-233" value="" style="endArrow=none;html=1;rounded=0;exitX=0.5;exitY=0;exitDx=0;exitDy=0;entryX=0.756;entryY=0.9;entryDx=0;entryDy=0;entryPerimeter=0;" parent="1" source="DKXciQr0R16n2NeMmEZQ-18" target="dU2uv5KBZdzxwUZeEGdV-226" edge="1">
          <mxGeometry width="50" height="50" relative="1" as="geometry">
            <mxPoint x="808" y="791" as="sourcePoint" />
            <mxPoint x="858" y="741" as="targetPoint" />
          </mxGeometry>
        </mxCell>
        <mxCell id="dU2uv5KBZdzxwUZeEGdV-234" value="" style="endArrow=none;html=1;rounded=0;entryX=0.369;entryY=1.067;entryDx=0;entryDy=0;entryPerimeter=0;" parent="1" edge="1">
          <mxGeometry width="50" height="50" relative="1" as="geometry">
            <mxPoint x="756" y="999" as="sourcePoint" />
            <mxPoint x="701.9960000000001" y="957.0100000000002" as="targetPoint" />
          </mxGeometry>
        </mxCell>
        <mxCell id="dU2uv5KBZdzxwUZeEGdV-235" value="" style="endArrow=none;html=1;rounded=0;exitX=0.68;exitY=0.025;exitDx=0;exitDy=0;entryX=0.222;entryY=1;entryDx=0;entryDy=0;entryPerimeter=0;exitPerimeter=0;" parent="1" source="DKXciQr0R16n2NeMmEZQ-18" target="dU2uv5KBZdzxwUZeEGdV-227" edge="1">
          <mxGeometry width="50" height="50" relative="1" as="geometry">
            <mxPoint x="812" y="889" as="sourcePoint" />
            <mxPoint x="795" y="828" as="targetPoint" />
          </mxGeometry>
        </mxCell>
        <mxCell id="dU2uv5KBZdzxwUZeEGdV-236" value="" style="endArrow=none;html=1;rounded=0;entryX=0.367;entryY=1.067;entryDx=0;entryDy=0;entryPerimeter=0;" parent="1" target="dU2uv5KBZdzxwUZeEGdV-228" edge="1">
          <mxGeometry width="50" height="50" relative="1" as="geometry">
            <mxPoint x="828" y="1001" as="sourcePoint" />
            <mxPoint x="805" y="838" as="targetPoint" />
          </mxGeometry>
        </mxCell>
        <mxCell id="dU2uv5KBZdzxwUZeEGdV-237" value="" style="endArrow=none;html=1;rounded=0;entryX=0.5;entryY=1;entryDx=0;entryDy=0;" parent="1" source="DKXciQr0R16n2NeMmEZQ-19" target="dU2uv5KBZdzxwUZeEGdV-230" edge="1">
          <mxGeometry width="50" height="50" relative="1" as="geometry">
            <mxPoint x="832" y="909" as="sourcePoint" />
            <mxPoint x="815" y="848" as="targetPoint" />
          </mxGeometry>
        </mxCell>
        <mxCell id="dU2uv5KBZdzxwUZeEGdV-238" value="" style="endArrow=none;html=1;rounded=0;entryX=0;entryY=1;entryDx=0;entryDy=0;exitX=0.75;exitY=0;exitDx=0;exitDy=0;" parent="1" source="DKXciQr0R16n2NeMmEZQ-19" target="dU2uv5KBZdzxwUZeEGdV-231" edge="1">
          <mxGeometry width="50" height="50" relative="1" as="geometry">
            <mxPoint x="1128" y="861" as="sourcePoint" />
            <mxPoint x="1111" y="831" as="targetPoint" />
          </mxGeometry>
        </mxCell>
        <mxCell id="dU2uv5KBZdzxwUZeEGdV-239" value="" style="endArrow=none;html=1;rounded=0;entryX=0;entryY=0.5;entryDx=0;entryDy=0;exitX=1;exitY=0.25;exitDx=0;exitDy=0;" parent="1" source="DKXciQr0R16n2NeMmEZQ-19" target="dU2uv5KBZdzxwUZeEGdV-232" edge="1">
          <mxGeometry width="50" height="50" relative="1" as="geometry">
            <mxPoint x="1119" y="889" as="sourcePoint" />
            <mxPoint x="1121" y="841" as="targetPoint" />
          </mxGeometry>
        </mxCell>
        <mxCell id="dU2uv5KBZdzxwUZeEGdV-240" value="" style="endArrow=none;html=1;rounded=0;exitX=1;exitY=0.5;exitDx=0;exitDy=0;" parent="1" source="DKXciQr0R16n2NeMmEZQ-19" target="dU2uv5KBZdzxwUZeEGdV-229" edge="1">
          <mxGeometry width="50" height="50" relative="1" as="geometry">
            <mxPoint x="1148" y="901" as="sourcePoint" />
            <mxPoint x="1131" y="851" as="targetPoint" />
          </mxGeometry>
        </mxCell>
        <mxCell id="dU2uv5KBZdzxwUZeEGdV-241" value="&lt;font style=&quot;font-size: 14px;&quot;&gt;&lt;b&gt;1&lt;/b&gt;&lt;/font&gt;" style="text;html=1;align=center;verticalAlign=middle;resizable=0;points=[];autosize=1;strokeColor=none;fillColor=none;" parent="1" vertex="1">
          <mxGeometry x="685" y="58" width="30" height="30" as="geometry" />
        </mxCell>
        <mxCell id="dU2uv5KBZdzxwUZeEGdV-242" value="&lt;b style=&quot;forced-color-adjust: none; color: rgb(0, 0, 0); font-family: Helvetica; font-size: 14px; font-style: normal; font-variant-ligatures: normal; font-variant-caps: normal; letter-spacing: normal; orphans: 2; text-align: center; text-indent: 0px; text-transform: none; widows: 2; word-spacing: 0px; -webkit-text-stroke-width: 0px; white-space: nowrap; background-color: rgb(251, 251, 251); text-decoration-thickness: initial; text-decoration-style: initial; text-decoration-color: initial;&quot;&gt;M&lt;/b&gt;" style="text;whiteSpace=wrap;html=1;" parent="1" vertex="1">
          <mxGeometry x="640" y="100" width="40" height="40" as="geometry" />
        </mxCell>
        <mxCell id="dU2uv5KBZdzxwUZeEGdV-243" value="&lt;b style=&quot;forced-color-adjust: none; color: rgb(0, 0, 0); font-family: Helvetica; font-size: 14px; font-style: normal; font-variant-ligatures: normal; font-variant-caps: normal; letter-spacing: normal; orphans: 2; text-align: center; text-indent: 0px; text-transform: none; widows: 2; word-spacing: 0px; -webkit-text-stroke-width: 0px; white-space: nowrap; background-color: rgb(251, 251, 251); text-decoration-thickness: initial; text-decoration-style: initial; text-decoration-color: initial;&quot;&gt;M&lt;/b&gt;" style="text;whiteSpace=wrap;html=1;" parent="1" vertex="1">
          <mxGeometry x="479" y="130" width="40" height="40" as="geometry" />
        </mxCell>
        <mxCell id="dU2uv5KBZdzxwUZeEGdV-245" value="&lt;font style=&quot;font-size: 14px;&quot;&gt;&lt;b&gt;1&lt;/b&gt;&lt;/font&gt;" style="text;html=1;align=center;verticalAlign=middle;resizable=0;points=[];autosize=1;strokeColor=none;fillColor=none;" parent="1" vertex="1">
          <mxGeometry x="525" y="255" width="30" height="30" as="geometry" />
        </mxCell>
        <mxCell id="dU2uv5KBZdzxwUZeEGdV-247" value="&lt;b style=&quot;forced-color-adjust: none; color: rgb(0, 0, 0); font-family: Helvetica; font-size: 14px; font-style: normal; font-variant-ligatures: normal; font-variant-caps: normal; letter-spacing: normal; orphans: 2; text-align: center; text-indent: 0px; text-transform: none; widows: 2; word-spacing: 0px; -webkit-text-stroke-width: 0px; white-space: nowrap; background-color: rgb(251, 251, 251); text-decoration-thickness: initial; text-decoration-style: initial; text-decoration-color: initial;&quot;&gt;M&lt;/b&gt;" style="text;whiteSpace=wrap;html=1;" parent="1" vertex="1">
          <mxGeometry x="-30" y="235.5" width="40" height="44.5" as="geometry" />
        </mxCell>
        <mxCell id="dU2uv5KBZdzxwUZeEGdV-248" value="&lt;font style=&quot;font-size: 14px;&quot;&gt;&lt;b&gt;1&lt;/b&gt;&lt;/font&gt;" style="text;html=1;align=center;verticalAlign=middle;resizable=0;points=[];autosize=1;strokeColor=none;fillColor=none;" parent="1" vertex="1">
          <mxGeometry x="319" y="43" width="30" height="30" as="geometry" />
        </mxCell>
        <mxCell id="dU2uv5KBZdzxwUZeEGdV-249" value="&lt;font style=&quot;font-size: 14px;&quot;&gt;&lt;b&gt;1&lt;/b&gt;&lt;/font&gt;" style="text;html=1;align=center;verticalAlign=middle;resizable=0;points=[];autosize=1;strokeColor=none;fillColor=none;" parent="1" vertex="1">
          <mxGeometry x="-210" y="201" width="30" height="30" as="geometry" />
        </mxCell>
        <mxCell id="dU2uv5KBZdzxwUZeEGdV-252" value="&lt;b style=&quot;forced-color-adjust: none; color: rgb(0, 0, 0); font-family: Helvetica; font-size: 14px; font-style: normal; font-variant-ligatures: normal; font-variant-caps: normal; letter-spacing: normal; orphans: 2; text-align: center; text-indent: 0px; text-transform: none; widows: 2; word-spacing: 0px; -webkit-text-stroke-width: 0px; white-space: nowrap; background-color: rgb(251, 251, 251); text-decoration-thickness: initial; text-decoration-style: initial; text-decoration-color: initial;&quot;&gt;M&lt;/b&gt;" style="text;whiteSpace=wrap;html=1;" parent="1" vertex="1">
          <mxGeometry x="328.5" y="164" width="40" height="40" as="geometry" />
        </mxCell>
        <mxCell id="dU2uv5KBZdzxwUZeEGdV-253" value="&lt;font style=&quot;font-size: 14px;&quot;&gt;&lt;b&gt;1&lt;/b&gt;&lt;/font&gt;" style="text;html=1;align=center;verticalAlign=middle;resizable=0;points=[];autosize=1;strokeColor=none;fillColor=none;" parent="1" vertex="1">
          <mxGeometry x="129" y="359" width="30" height="30" as="geometry" />
        </mxCell>
        <mxCell id="dU2uv5KBZdzxwUZeEGdV-254" value="&lt;b style=&quot;forced-color-adjust: none; color: rgb(0, 0, 0); font-family: Helvetica; font-size: 14px; font-style: normal; font-variant-ligatures: normal; font-variant-caps: normal; letter-spacing: normal; orphans: 2; text-align: center; text-indent: 0px; text-transform: none; widows: 2; word-spacing: 0px; -webkit-text-stroke-width: 0px; white-space: nowrap; background-color: rgb(251, 251, 251); text-decoration-thickness: initial; text-decoration-style: initial; text-decoration-color: initial;&quot;&gt;M&lt;/b&gt;" style="text;whiteSpace=wrap;html=1;" parent="1" vertex="1">
          <mxGeometry x="288.5" y="329" width="40" height="40" as="geometry" />
        </mxCell>
        <mxCell id="dU2uv5KBZdzxwUZeEGdV-255" value="&lt;b style=&quot;forced-color-adjust: none; color: rgb(0, 0, 0); font-family: Helvetica; font-size: 14px; font-style: normal; font-variant-ligatures: normal; font-variant-caps: normal; letter-spacing: normal; orphans: 2; text-align: center; text-indent: 0px; text-transform: none; widows: 2; word-spacing: 0px; -webkit-text-stroke-width: 0px; white-space: nowrap; background-color: rgb(251, 251, 251); text-decoration-thickness: initial; text-decoration-style: initial; text-decoration-color: initial;&quot;&gt;M&lt;/b&gt;" style="text;whiteSpace=wrap;html=1;" parent="1" vertex="1">
          <mxGeometry x="654" y="446" width="40" height="40" as="geometry" />
        </mxCell>
        <mxCell id="dU2uv5KBZdzxwUZeEGdV-256" value="&lt;font style=&quot;font-size: 14px;&quot;&gt;&lt;b&gt;1&lt;/b&gt;&lt;/font&gt;" style="text;html=1;align=center;verticalAlign=middle;resizable=0;points=[];autosize=1;strokeColor=none;fillColor=none;" parent="1" vertex="1">
          <mxGeometry x="549" y="433.5" width="30" height="30" as="geometry" />
        </mxCell>
        <mxCell id="dU2uv5KBZdzxwUZeEGdV-257" value="&lt;b style=&quot;forced-color-adjust: none; color: rgb(0, 0, 0); font-family: Helvetica; font-size: 14px; font-style: normal; font-variant-ligatures: normal; font-variant-caps: normal; letter-spacing: normal; orphans: 2; text-align: center; text-indent: 0px; text-transform: none; widows: 2; word-spacing: 0px; -webkit-text-stroke-width: 0px; white-space: nowrap; background-color: rgb(251, 251, 251); text-decoration-thickness: initial; text-decoration-style: initial; text-decoration-color: initial;&quot;&gt;M&lt;/b&gt;" style="text;whiteSpace=wrap;html=1;" parent="1" vertex="1">
          <mxGeometry x="1129" y="521" width="40" height="40" as="geometry" />
        </mxCell>
        <mxCell id="dU2uv5KBZdzxwUZeEGdV-258" value="&lt;font style=&quot;font-size: 14px;&quot;&gt;&lt;b&gt;1&lt;/b&gt;&lt;/font&gt;" style="text;html=1;align=center;verticalAlign=middle;resizable=0;points=[];autosize=1;strokeColor=none;fillColor=none;" parent="1" vertex="1">
          <mxGeometry x="934" y="399" width="30" height="30" as="geometry" />
        </mxCell>
        <mxCell id="dU2uv5KBZdzxwUZeEGdV-259" value="&lt;b style=&quot;forced-color-adjust: none; color: rgb(0, 0, 0); font-family: Helvetica; font-size: 14px; font-style: normal; font-variant-ligatures: normal; font-variant-caps: normal; letter-spacing: normal; orphans: 2; text-align: center; text-indent: 0px; text-transform: none; widows: 2; word-spacing: 0px; -webkit-text-stroke-width: 0px; white-space: nowrap; background-color: rgb(251, 251, 251); text-decoration-thickness: initial; text-decoration-style: initial; text-decoration-color: initial;&quot;&gt;M&lt;/b&gt;" style="text;whiteSpace=wrap;html=1;" parent="1" vertex="1">
          <mxGeometry x="1163" y="361" width="40" height="40" as="geometry" />
        </mxCell>
        <mxCell id="dU2uv5KBZdzxwUZeEGdV-260" value="&lt;font style=&quot;font-size: 14px;&quot;&gt;&lt;b&gt;1&lt;/b&gt;&lt;/font&gt;" style="text;html=1;align=center;verticalAlign=middle;resizable=0;points=[];autosize=1;strokeColor=none;fillColor=none;" parent="1" vertex="1">
          <mxGeometry x="693" y="263" width="30" height="30" as="geometry" />
        </mxCell>
        <mxCell id="dU2uv5KBZdzxwUZeEGdV-261" value="&lt;b style=&quot;forced-color-adjust: none; color: rgb(0, 0, 0); font-family: Helvetica; font-size: 14px; font-style: normal; font-variant-ligatures: normal; font-variant-caps: normal; letter-spacing: normal; orphans: 2; text-align: center; text-indent: 0px; text-transform: none; widows: 2; word-spacing: 0px; -webkit-text-stroke-width: 0px; white-space: nowrap; background-color: rgb(251, 251, 251); text-decoration-thickness: initial; text-decoration-style: initial; text-decoration-color: initial;&quot;&gt;M&lt;/b&gt;" style="text;whiteSpace=wrap;html=1;" parent="1" vertex="1">
          <mxGeometry x="970" y="292" width="40" height="40" as="geometry" />
        </mxCell>
        <mxCell id="dU2uv5KBZdzxwUZeEGdV-262" value="&lt;b style=&quot;forced-color-adjust: none; color: rgb(0, 0, 0); font-family: Helvetica; font-size: 14px; font-style: normal; font-variant-ligatures: normal; font-variant-caps: normal; letter-spacing: normal; orphans: 2; text-align: center; text-indent: 0px; text-transform: none; widows: 2; word-spacing: 0px; -webkit-text-stroke-width: 0px; white-space: nowrap; background-color: rgb(251, 251, 251); text-decoration-thickness: initial; text-decoration-style: initial; text-decoration-color: initial;&quot;&gt;M&lt;/b&gt;" style="text;whiteSpace=wrap;html=1;" parent="1" vertex="1">
          <mxGeometry x="1087" y="153" width="40" height="40" as="geometry" />
        </mxCell>
        <mxCell id="dU2uv5KBZdzxwUZeEGdV-263" value="&lt;font style=&quot;font-size: 18px;&quot;&gt;&lt;b style=&quot;&quot;&gt;1&lt;/b&gt;&lt;/font&gt;" style="text;html=1;align=center;verticalAlign=middle;resizable=0;points=[];autosize=1;strokeColor=none;fillColor=none;" parent="1" vertex="1">
          <mxGeometry x="1153" y="241" width="30" height="40" as="geometry" />
        </mxCell>
        <mxCell id="dU2uv5KBZdzxwUZeEGdV-264" value="&lt;font style=&quot;font-size: 18px;&quot;&gt;&lt;b style=&quot;&quot;&gt;1&lt;/b&gt;&lt;/font&gt;" style="text;html=1;align=center;verticalAlign=middle;resizable=0;points=[];autosize=1;strokeColor=none;fillColor=none;" parent="1" vertex="1">
          <mxGeometry x="825" y="100" width="30" height="40" as="geometry" />
        </mxCell>
        <mxCell id="dU2uv5KBZdzxwUZeEGdV-265" value="&lt;b style=&quot;forced-color-adjust: none; color: rgb(0, 0, 0); font-family: Helvetica; font-size: 14px; font-style: normal; font-variant-ligatures: normal; font-variant-caps: normal; letter-spacing: normal; orphans: 2; text-align: center; text-indent: 0px; text-transform: none; widows: 2; word-spacing: 0px; -webkit-text-stroke-width: 0px; white-space: nowrap; background-color: rgb(251, 251, 251); text-decoration-thickness: initial; text-decoration-style: initial; text-decoration-color: initial;&quot;&gt;M&lt;/b&gt;" style="text;whiteSpace=wrap;html=1;" parent="1" vertex="1">
          <mxGeometry x="785" y="160" width="40" height="40" as="geometry" />
        </mxCell>
        <mxCell id="dU2uv5KBZdzxwUZeEGdV-266" value="&lt;b style=&quot;forced-color-adjust: none; color: rgb(0, 0, 0); font-family: Helvetica; font-size: 14px; font-style: normal; font-variant-ligatures: normal; font-variant-caps: normal; letter-spacing: normal; orphans: 2; text-align: center; text-indent: 0px; text-transform: none; widows: 2; word-spacing: 0px; -webkit-text-stroke-width: 0px; white-space: nowrap; background-color: rgb(251, 251, 251); text-decoration-thickness: initial; text-decoration-style: initial; text-decoration-color: initial;&quot;&gt;M&lt;/b&gt;" style="text;whiteSpace=wrap;html=1;" parent="1" vertex="1">
          <mxGeometry x="1071" y="686" width="40" height="40" as="geometry" />
        </mxCell>
        <mxCell id="dU2uv5KBZdzxwUZeEGdV-267" value="&lt;font style=&quot;font-size: 18px;&quot;&gt;&lt;b style=&quot;&quot;&gt;1&lt;/b&gt;&lt;/font&gt;" style="text;html=1;align=center;verticalAlign=middle;resizable=0;points=[];autosize=1;strokeColor=none;fillColor=none;" parent="1" vertex="1">
          <mxGeometry x="942" y="680" width="30" height="40" as="geometry" />
        </mxCell>
        <mxCell id="dU2uv5KBZdzxwUZeEGdV-268" value="&lt;font style=&quot;font-size: 18px;&quot;&gt;&lt;b style=&quot;&quot;&gt;1&lt;/b&gt;&lt;/font&gt;" style="text;html=1;align=center;verticalAlign=middle;resizable=0;points=[];autosize=1;strokeColor=none;fillColor=none;" parent="1" vertex="1">
          <mxGeometry x="741" y="697" width="30" height="40" as="geometry" />
        </mxCell>
        <mxCell id="dU2uv5KBZdzxwUZeEGdV-269" value="&lt;b style=&quot;forced-color-adjust: none; color: rgb(0, 0, 0); font-family: Helvetica; font-size: 14px; font-style: normal; font-variant-ligatures: normal; font-variant-caps: normal; letter-spacing: normal; orphans: 2; text-align: center; text-indent: 0px; text-transform: none; widows: 2; word-spacing: 0px; -webkit-text-stroke-width: 0px; white-space: nowrap; background-color: rgb(251, 251, 251); text-decoration-thickness: initial; text-decoration-style: initial; text-decoration-color: initial;&quot;&gt;M&lt;/b&gt;" style="text;whiteSpace=wrap;html=1;" parent="1" vertex="1">
          <mxGeometry x="609" y="844" width="40" height="40" as="geometry" />
        </mxCell>
        <mxCell id="dU2uv5KBZdzxwUZeEGdV-270" value="&lt;b style=&quot;forced-color-adjust: none; color: rgb(0, 0, 0); font-family: Helvetica; font-size: 14px; font-style: normal; font-variant-ligatures: normal; font-variant-caps: normal; letter-spacing: normal; orphans: 2; text-align: center; text-indent: 0px; text-transform: none; widows: 2; word-spacing: 0px; -webkit-text-stroke-width: 0px; white-space: nowrap; background-color: rgb(251, 251, 251); text-decoration-thickness: initial; text-decoration-style: initial; text-decoration-color: initial;&quot;&gt;M&lt;/b&gt;" style="text;whiteSpace=wrap;html=1;" parent="1" vertex="1">
          <mxGeometry x="868" y="835" width="40" height="40" as="geometry" />
        </mxCell>
        <mxCell id="dU2uv5KBZdzxwUZeEGdV-271" value="&lt;font style=&quot;font-size: 18px;&quot;&gt;&lt;b style=&quot;&quot;&gt;1&lt;/b&gt;&lt;/font&gt;" style="text;html=1;align=center;verticalAlign=middle;resizable=0;points=[];autosize=1;strokeColor=none;fillColor=none;" parent="1" vertex="1">
          <mxGeometry x="736" y="835" width="30" height="40" as="geometry" />
        </mxCell>
        <mxCell id="dU2uv5KBZdzxwUZeEGdV-272" value="&lt;font style=&quot;font-size: 18px;&quot;&gt;&lt;b style=&quot;&quot;&gt;1&lt;/b&gt;&lt;/font&gt;" style="text;html=1;align=center;verticalAlign=middle;resizable=0;points=[];autosize=1;strokeColor=none;fillColor=none;" parent="1" vertex="1">
          <mxGeometry x="90" y="600" width="30" height="40" as="geometry" />
        </mxCell>
        <mxCell id="dU2uv5KBZdzxwUZeEGdV-273" value="&lt;b style=&quot;forced-color-adjust: none; color: rgb(0, 0, 0); font-family: Helvetica; font-size: 14px; font-style: normal; font-variant-ligatures: normal; font-variant-caps: normal; letter-spacing: normal; orphans: 2; text-align: center; text-indent: 0px; text-transform: none; widows: 2; word-spacing: 0px; -webkit-text-stroke-width: 0px; white-space: nowrap; background-color: rgb(251, 251, 251); text-decoration-thickness: initial; text-decoration-style: initial; text-decoration-color: initial;&quot;&gt;M&lt;/b&gt;" style="text;whiteSpace=wrap;html=1;" parent="1" vertex="1">
          <mxGeometry x="145.5" y="684" width="40" height="40" as="geometry" />
        </mxCell>
        <mxCell id="dU2uv5KBZdzxwUZeEGdV-274" value="&lt;font style=&quot;font-size: 18px;&quot;&gt;&lt;b&gt;1&lt;/b&gt;&lt;/font&gt;" style="text;html=1;align=center;verticalAlign=middle;resizable=0;points=[];autosize=1;strokeColor=none;fillColor=none;" parent="1" vertex="1">
          <mxGeometry x="307" y="794" width="30" height="40" as="geometry" />
        </mxCell>
        <mxCell id="dU2uv5KBZdzxwUZeEGdV-275" value="&lt;b style=&quot;forced-color-adjust: none; color: rgb(0, 0, 0); font-family: Helvetica; font-size: 14px; font-style: normal; font-variant-ligatures: normal; font-variant-caps: normal; letter-spacing: normal; orphans: 2; text-align: center; text-indent: 0px; text-transform: none; widows: 2; word-spacing: 0px; -webkit-text-stroke-width: 0px; white-space: nowrap; background-color: rgb(251, 251, 251); text-decoration-thickness: initial; text-decoration-style: initial; text-decoration-color: initial;&quot;&gt;M&lt;/b&gt;" style="text;whiteSpace=wrap;html=1;" parent="1" vertex="1">
          <mxGeometry x="97" y="876" width="40" height="40" as="geometry" />
        </mxCell>
        <mxCell id="dU2uv5KBZdzxwUZeEGdV-276" value="&lt;font style=&quot;font-size: 18px;&quot;&gt;&lt;b&gt;1&lt;/b&gt;&lt;/font&gt;" style="text;html=1;align=center;verticalAlign=middle;resizable=0;points=[];autosize=1;strokeColor=none;fillColor=none;" parent="1" vertex="1">
          <mxGeometry x="-22" y="714" width="30" height="40" as="geometry" />
        </mxCell>
        <mxCell id="dU2uv5KBZdzxwUZeEGdV-277" value="&lt;b style=&quot;forced-color-adjust: none; color: rgb(0, 0, 0); font-family: Helvetica; font-size: 14px; font-style: normal; font-variant-ligatures: normal; font-variant-caps: normal; letter-spacing: normal; orphans: 2; text-align: center; text-indent: 0px; text-transform: none; widows: 2; word-spacing: 0px; -webkit-text-stroke-width: 0px; white-space: nowrap; background-color: rgb(251, 251, 251); text-decoration-thickness: initial; text-decoration-style: initial; text-decoration-color: initial;&quot;&gt;M&lt;/b&gt;" style="text;whiteSpace=wrap;html=1;" parent="1" vertex="1">
          <mxGeometry x="145.5" y="748" width="40" height="40" as="geometry" />
        </mxCell>
        <mxCell id="dU2uv5KBZdzxwUZeEGdV-278" value="&lt;font style=&quot;font-size: 18px;&quot;&gt;&lt;b&gt;1&lt;/b&gt;&lt;/font&gt;" style="text;html=1;align=center;verticalAlign=middle;resizable=0;points=[];autosize=1;strokeColor=none;fillColor=none;" parent="1" vertex="1">
          <mxGeometry x="-103" y="678" width="30" height="40" as="geometry" />
        </mxCell>
        <mxCell id="dU2uv5KBZdzxwUZeEGdV-279" value="&lt;b style=&quot;forced-color-adjust: none; color: rgb(0, 0, 0); font-family: Helvetica; font-size: 14px; font-style: normal; font-variant-ligatures: normal; font-variant-caps: normal; letter-spacing: normal; orphans: 2; text-align: center; text-indent: 0px; text-transform: none; widows: 2; word-spacing: 0px; -webkit-text-stroke-width: 0px; white-space: nowrap; background-color: rgb(251, 251, 251); text-decoration-thickness: initial; text-decoration-style: initial; text-decoration-color: initial;&quot;&gt;M&lt;/b&gt;" style="text;whiteSpace=wrap;html=1;" parent="1" vertex="1">
          <mxGeometry x="-93" y="844" width="40" height="40" as="geometry" />
        </mxCell>
        <mxCell id="dU2uv5KBZdzxwUZeEGdV-226" value="subscriber_id" style="ellipse;whiteSpace=wrap;html=1;" parent="1" vertex="1">
          <mxGeometry x="726" y="939" width="90" height="30" as="geometry" />
        </mxCell>
        <mxCell id="WsdU4TTMj5Xs4U3gIXGh-10" value="" style="endArrow=classic;html=1;rounded=0;entryX=0.5;entryY=0;entryDx=0;entryDy=0;" parent="1" target="DKXciQr0R16n2NeMmEZQ-37" edge="1">
          <mxGeometry width="50" height="50" relative="1" as="geometry">
            <mxPoint x="828" y="693" as="sourcePoint" />
            <mxPoint x="687" y="694" as="targetPoint" />
            <Array as="points">
              <mxPoint x="652" y="693" />
            </Array>
          </mxGeometry>
        </mxCell>
        <mxCell id="WsdU4TTMj5Xs4U3gIXGh-11" value="PlaylistSongs" style="rounded=0;whiteSpace=wrap;html=1;" parent="1" vertex="1">
          <mxGeometry x="926" y="803" width="120" height="40" as="geometry" />
        </mxCell>
        <mxCell id="WsdU4TTMj5Xs4U3gIXGh-12" value="playlist_id" style="ellipse;whiteSpace=wrap;html=1;" parent="1" vertex="1">
          <mxGeometry x="875" y="747" width="80" height="30" as="geometry" />
        </mxCell>
        <mxCell id="WsdU4TTMj5Xs4U3gIXGh-13" value="song_id" style="ellipse;whiteSpace=wrap;html=1;" parent="1" vertex="1">
          <mxGeometry x="964" y="735" width="80" height="30" as="geometry" />
        </mxCell>
        <mxCell id="WsdU4TTMj5Xs4U3gIXGh-15" value="" style="endArrow=none;html=1;rounded=0;entryX=0.133;entryY=0.05;entryDx=0;entryDy=0;entryPerimeter=0;exitX=0.5;exitY=1;exitDx=0;exitDy=0;" parent="1" source="WsdU4TTMj5Xs4U3gIXGh-12" target="WsdU4TTMj5Xs4U3gIXGh-11" edge="1">
          <mxGeometry width="50" height="50" relative="1" as="geometry">
            <mxPoint x="548" y="853" as="sourcePoint" />
            <mxPoint x="598" y="803" as="targetPoint" />
          </mxGeometry>
        </mxCell>
        <mxCell id="WsdU4TTMj5Xs4U3gIXGh-16" value="" style="endArrow=none;html=1;rounded=0;entryX=0.65;entryY=0.05;entryDx=0;entryDy=0;entryPerimeter=0;exitX=0.5;exitY=1;exitDx=0;exitDy=0;" parent="1" source="WsdU4TTMj5Xs4U3gIXGh-13" target="WsdU4TTMj5Xs4U3gIXGh-11" edge="1">
          <mxGeometry width="50" height="50" relative="1" as="geometry">
            <mxPoint x="925" y="787" as="sourcePoint" />
            <mxPoint x="952" y="815" as="targetPoint" />
          </mxGeometry>
        </mxCell>
        <mxCell id="WsdU4TTMj5Xs4U3gIXGh-17" value="can&amp;nbsp;&lt;div&gt;have&lt;/div&gt;" style="rhombus;whiteSpace=wrap;html=1;" parent="1" vertex="1">
          <mxGeometry x="771" y="788" width="78" height="70" as="geometry" />
        </mxCell>
        <mxCell id="WsdU4TTMj5Xs4U3gIXGh-18" value="Has" style="rhombus;whiteSpace=wrap;html=1;" parent="1" vertex="1">
          <mxGeometry x="1111" y="789" width="78" height="70" as="geometry" />
        </mxCell>
        <mxCell id="WsdU4TTMj5Xs4U3gIXGh-19" value="" style="endArrow=classic;html=1;rounded=0;entryX=0;entryY=0.5;entryDx=0;entryDy=0;exitX=1;exitY=0;exitDx=0;exitDy=0;" parent="1" source="dU2uv5KBZdzxwUZeEGdV-226" target="WsdU4TTMj5Xs4U3gIXGh-17" edge="1">
          <mxGeometry width="50" height="50" relative="1" as="geometry">
            <mxPoint x="788" y="933" as="sourcePoint" />
            <mxPoint x="598" y="803" as="targetPoint" />
            <Array as="points">
              <mxPoint x="718" y="883" />
              <mxPoint x="718" y="823" />
            </Array>
          </mxGeometry>
        </mxCell>
        <mxCell id="WsdU4TTMj5Xs4U3gIXGh-20" value="" style="endArrow=classic;html=1;rounded=0;entryX=0;entryY=0.5;entryDx=0;entryDy=0;exitX=1;exitY=0.5;exitDx=0;exitDy=0;" parent="1" source="WsdU4TTMj5Xs4U3gIXGh-17" target="WsdU4TTMj5Xs4U3gIXGh-11" edge="1">
          <mxGeometry width="50" height="50" relative="1" as="geometry">
            <mxPoint x="548" y="853" as="sourcePoint" />
            <mxPoint x="598" y="803" as="targetPoint" />
          </mxGeometry>
        </mxCell>
        <mxCell id="WsdU4TTMj5Xs4U3gIXGh-21" value="" style="endArrow=classic;html=1;rounded=0;entryX=1;entryY=0.5;entryDx=0;entryDy=0;exitX=0;exitY=0.5;exitDx=0;exitDy=0;" parent="1" source="WsdU4TTMj5Xs4U3gIXGh-18" target="WsdU4TTMj5Xs4U3gIXGh-11" edge="1">
          <mxGeometry width="50" height="50" relative="1" as="geometry">
            <mxPoint x="548" y="853" as="sourcePoint" />
            <mxPoint x="598" y="803" as="targetPoint" />
          </mxGeometry>
        </mxCell>
        <mxCell id="WsdU4TTMj5Xs4U3gIXGh-22" value="" style="endArrow=classic;html=1;rounded=0;entryX=1;entryY=0.5;entryDx=0;entryDy=0;" parent="1" target="WsdU4TTMj5Xs4U3gIXGh-18" edge="1">
          <mxGeometry width="50" height="50" relative="1" as="geometry">
            <mxPoint x="1180" y="940" as="sourcePoint" />
            <mxPoint x="598" y="803" as="targetPoint" />
            <Array as="points">
              <mxPoint x="1260" y="930" />
              <mxPoint x="1258" y="824" />
            </Array>
          </mxGeometry>
        </mxCell>
        <mxCell id="WsdU4TTMj5Xs4U3gIXGh-26" value="&lt;b style=&quot;forced-color-adjust: none; color: rgb(0, 0, 0); font-family: Helvetica; font-size: 14px; font-style: normal; font-variant-ligatures: normal; font-variant-caps: normal; letter-spacing: normal; orphans: 2; text-align: center; text-indent: 0px; text-transform: none; widows: 2; word-spacing: 0px; -webkit-text-stroke-width: 0px; white-space: nowrap; background-color: rgb(251, 251, 251); text-decoration-thickness: initial; text-decoration-style: initial; text-decoration-color: initial;&quot;&gt;M&lt;/b&gt;" style="text;whiteSpace=wrap;html=1;" parent="1" vertex="1">
          <mxGeometry x="1078" y="835" width="40" height="40" as="geometry" />
        </mxCell>
        <mxCell id="WsdU4TTMj5Xs4U3gIXGh-27" value="&lt;font style=&quot;font-size: 18px;&quot;&gt;&lt;b style=&quot;&quot;&gt;1&lt;/b&gt;&lt;/font&gt;" style="text;html=1;align=center;verticalAlign=middle;resizable=0;points=[];autosize=1;strokeColor=none;fillColor=none;" parent="1" vertex="1">
          <mxGeometry x="1218" y="835" width="30" height="40" as="geometry" />
        </mxCell>
        <mxCell id="lc3SM6IiJQLwjG8bztUq-1" value="OrderDetails" style="rounded=0;whiteSpace=wrap;html=1;" parent="1" vertex="1">
          <mxGeometry x="10" y="206" width="90" height="42" as="geometry" />
        </mxCell>
        <mxCell id="lc3SM6IiJQLwjG8bztUq-2" value="" style="endArrow=classic;html=1;rounded=0;entryX=1;entryY=0.5;entryDx=0;entryDy=0;" parent="1" target="lc3SM6IiJQLwjG8bztUq-1" edge="1">
          <mxGeometry width="50" height="50" relative="1" as="geometry">
            <mxPoint x="160" y="227" as="sourcePoint" />
            <mxPoint x="300" y="190" as="targetPoint" />
          </mxGeometry>
        </mxCell>
        <mxCell id="lc3SM6IiJQLwjG8bztUq-3" value="Have" style="rhombus;whiteSpace=wrap;html=1;" parent="1" vertex="1">
          <mxGeometry x="159" y="197" width="60" height="60" as="geometry" />
        </mxCell>
        <mxCell id="lc3SM6IiJQLwjG8bztUq-4" value="" style="endArrow=classic;html=1;rounded=0;entryX=1;entryY=0.5;entryDx=0;entryDy=0;exitX=0;exitY=0.75;exitDx=0;exitDy=0;" parent="1" source="DKXciQr0R16n2NeMmEZQ-5" target="lc3SM6IiJQLwjG8bztUq-3" edge="1">
          <mxGeometry width="50" height="50" relative="1" as="geometry">
            <mxPoint x="300" y="270" as="sourcePoint" />
            <mxPoint x="300" y="190" as="targetPoint" />
            <Array as="points">
              <mxPoint x="250" y="280" />
              <mxPoint x="250" y="227" />
            </Array>
          </mxGeometry>
        </mxCell>
        <mxCell id="lc3SM6IiJQLwjG8bztUq-5" value="&lt;b style=&quot;forced-color-adjust: none; color: rgb(0, 0, 0); font-family: Helvetica; font-size: 14px; font-style: normal; font-variant-ligatures: normal; font-variant-caps: normal; letter-spacing: normal; orphans: 2; text-align: center; text-indent: 0px; text-transform: none; widows: 2; word-spacing: 0px; -webkit-text-stroke-width: 0px; white-space: nowrap; background-color: rgb(251, 251, 251); text-decoration-thickness: initial; text-decoration-style: initial; text-decoration-color: initial;&quot;&gt;M&lt;/b&gt;" style="text;whiteSpace=wrap;html=1;" parent="1" vertex="1">
          <mxGeometry x="130" y="233.75" width="40" height="44.5" as="geometry" />
        </mxCell>
        <mxCell id="lc3SM6IiJQLwjG8bztUq-6" value="&lt;font style=&quot;font-size: 14px;&quot;&gt;&lt;b&gt;1&lt;/b&gt;&lt;/font&gt;" style="text;html=1;align=center;verticalAlign=middle;resizable=0;points=[];autosize=1;strokeColor=none;fillColor=none;" parent="1" vertex="1">
          <mxGeometry x="214" y="242.75" width="30" height="30" as="geometry" />
        </mxCell>
        <mxCell id="lc3SM6IiJQLwjG8bztUq-7" value="" style="endArrow=none;html=1;rounded=0;entryX=0.122;entryY=-0.024;entryDx=0;entryDy=0;entryPerimeter=0;" parent="1" target="lc3SM6IiJQLwjG8bztUq-1" edge="1">
          <mxGeometry width="50" height="50" relative="1" as="geometry">
            <mxPoint x="10" y="180" as="sourcePoint" />
            <mxPoint x="300" y="190" as="targetPoint" />
          </mxGeometry>
        </mxCell>
        <mxCell id="lc3SM6IiJQLwjG8bztUq-8" value="order_id" style="ellipse;whiteSpace=wrap;html=1;" parent="1" vertex="1">
          <mxGeometry x="-30" y="153" width="70" height="30" as="geometry" />
        </mxCell>
        <mxCell id="lc3SM6IiJQLwjG8bztUq-9" value="product_id" style="ellipse;whiteSpace=wrap;html=1;" parent="1" vertex="1">
          <mxGeometry x="10" y="120" width="80" height="33" as="geometry" />
        </mxCell>
        <mxCell id="lc3SM6IiJQLwjG8bztUq-10" value="quantity" style="ellipse;whiteSpace=wrap;html=1;" parent="1" vertex="1">
          <mxGeometry x="85" y="140" width="70" height="30" as="geometry" />
        </mxCell>
        <mxCell id="lc3SM6IiJQLwjG8bztUq-11" value="" style="endArrow=none;html=1;rounded=0;entryX=0.5;entryY=1;entryDx=0;entryDy=0;exitX=0.5;exitY=0;exitDx=0;exitDy=0;" parent="1" source="lc3SM6IiJQLwjG8bztUq-1" target="lc3SM6IiJQLwjG8bztUq-9" edge="1">
          <mxGeometry width="50" height="50" relative="1" as="geometry">
            <mxPoint x="250" y="240" as="sourcePoint" />
            <mxPoint x="300" y="190" as="targetPoint" />
          </mxGeometry>
        </mxCell>
        <mxCell id="lc3SM6IiJQLwjG8bztUq-12" value="" style="endArrow=none;html=1;rounded=0;entryX=0.243;entryY=0.9;entryDx=0;entryDy=0;entryPerimeter=0;" parent="1" source="lc3SM6IiJQLwjG8bztUq-1" target="lc3SM6IiJQLwjG8bztUq-10" edge="1">
          <mxGeometry width="50" height="50" relative="1" as="geometry">
            <mxPoint x="250" y="240" as="sourcePoint" />
            <mxPoint x="300" y="190" as="targetPoint" />
          </mxGeometry>
        </mxCell>
        <mxCell id="lc3SM6IiJQLwjG8bztUq-13" value="price" style="ellipse;whiteSpace=wrap;html=1;" parent="1" vertex="1">
          <mxGeometry x="121" y="174" width="59" height="26" as="geometry" />
        </mxCell>
        <mxCell id="lc3SM6IiJQLwjG8bztUq-14" value="" style="endArrow=none;html=1;rounded=0;" parent="1" edge="1">
          <mxGeometry width="50" height="50" relative="1" as="geometry">
            <mxPoint x="90" y="207" as="sourcePoint" />
            <mxPoint x="120" y="187" as="targetPoint" />
          </mxGeometry>
        </mxCell>
        <mxCell id="3W63PzwFPjLl8w6arQXk-19" value="" style="endArrow=classic;html=1;rounded=0;" parent="1" edge="1">
          <mxGeometry width="50" height="50" relative="1" as="geometry">
            <mxPoint x="130" y="470" as="sourcePoint" />
            <mxPoint x="30" y="420" as="targetPoint" />
            <Array as="points">
              <mxPoint x="30" y="470" />
            </Array>
          </mxGeometry>
        </mxCell>
        <mxCell id="3W63PzwFPjLl8w6arQXk-29" value="" style="endArrow=classic;html=1;rounded=0;exitX=0.5;exitY=1;exitDx=0;exitDy=0;entryX=0;entryY=0.5;entryDx=0;entryDy=0;" parent="1" source="DKXciQr0R16n2NeMmEZQ-15" target="dU2uv5KBZdzxwUZeEGdV-2" edge="1">
          <mxGeometry width="50" height="50" relative="1" as="geometry">
            <mxPoint x="900" y="590" as="sourcePoint" />
            <mxPoint x="950" y="540" as="targetPoint" />
            <Array as="points">
              <mxPoint x="802" y="509" />
            </Array>
          </mxGeometry>
        </mxCell>
        <mxCell id="nyOmyXcOPDoKW2sVIXPq-1" value="status" style="ellipse;whiteSpace=wrap;html=1;" vertex="1" parent="1">
          <mxGeometry x="279" y="724" width="70" height="20" as="geometry" />
        </mxCell>
        <mxCell id="nyOmyXcOPDoKW2sVIXPq-2" value="" style="endArrow=none;html=1;rounded=0;exitX=1;exitY=0;exitDx=0;exitDy=0;entryX=0;entryY=1;entryDx=0;entryDy=0;" edge="1" parent="1" source="DKXciQr0R16n2NeMmEZQ-12" target="nyOmyXcOPDoKW2sVIXPq-1">
          <mxGeometry width="50" height="50" relative="1" as="geometry">
            <mxPoint x="410" y="490" as="sourcePoint" />
            <mxPoint x="460" y="440" as="targetPoint" />
          </mxGeometry>
        </mxCell>
        <mxCell id="nyOmyXcOPDoKW2sVIXPq-3" value="&lt;font style=&quot;font-size: 18px;&quot;&gt;&lt;b&gt;ECOMMERCE&lt;/b&gt;&lt;/font&gt;" style="text;html=1;align=center;verticalAlign=middle;resizable=0;points=[];autosize=1;strokeColor=none;fillColor=#59E3FF;" vertex="1" parent="1">
          <mxGeometry x="-470" y="200" width="140" height="40" as="geometry" />
        </mxCell>
        <mxCell id="nyOmyXcOPDoKW2sVIXPq-4" value="&lt;font style=&quot;font-size: 18px;&quot;&gt;&lt;b&gt;HEALTHCARE&lt;/b&gt;&lt;/font&gt;" style="text;html=1;align=center;verticalAlign=middle;resizable=0;points=[];autosize=1;strokeColor=none;fillColor=#59E3FF;" vertex="1" parent="1">
          <mxGeometry x="30" y="963" width="150" height="40" as="geometry" />
        </mxCell>
        <mxCell id="nyOmyXcOPDoKW2sVIXPq-5" value="&lt;font style=&quot;font-size: 18px;&quot;&gt;&lt;b&gt;EDUCATION&lt;/b&gt;&lt;/font&gt;" style="text;html=1;align=center;verticalAlign=middle;resizable=0;points=[];autosize=1;strokeColor=none;fillColor=#59E3FF;" vertex="1" parent="1">
          <mxGeometry x="1093" y="-45" width="130" height="40" as="geometry" />
        </mxCell>
        <mxCell id="nyOmyXcOPDoKW2sVIXPq-6" value="&lt;font style=&quot;font-size: 18px;&quot;&gt;&lt;b&gt;BANKING&lt;/b&gt;&lt;/font&gt;" style="text;html=1;align=center;verticalAlign=middle;resizable=0;points=[];autosize=1;strokeColor=none;fillColor=#59E3FF;" vertex="1" parent="1">
          <mxGeometry x="1460" y="399" width="110" height="40" as="geometry" />
        </mxCell>
        <mxCell id="nyOmyXcOPDoKW2sVIXPq-7" value="&lt;font style=&quot;font-size: 18px;&quot;&gt;&lt;b&gt;ENTERTAINMENT&lt;/b&gt;&lt;/font&gt;" style="text;html=1;align=center;verticalAlign=middle;resizable=0;points=[];autosize=1;strokeColor=none;fillColor=#59E3FF;" vertex="1" parent="1">
          <mxGeometry x="1326" y="795" width="180" height="40" as="geometry" />
        </mxCell>
      </root>
    </mxGraphModel>
  </diagram>
</mxfile>
